<?xml version="1.0" encoding="UTF-8"?><svg id="b" xmlns="http://www.w3.org/2000/svg" xmlns:xlink="http://www.w3.org/1999/xlink" viewBox="0 0 144.71 189.23"><defs><clipPath id="e"><rect y="0" width="144.71" height="189.23" style="fill:none;"/></clipPath><clipPath id="f"><rect y="0" width="144.71" height="189.23" style="fill:none;"/></clipPath></defs><g id="c"><g id="d"><g style="clip-path:url(#e);"><g style="clip-path:url(#f);"><path d="m50.93,31.18c-.02-7.33-2.22-13.95-6.51-19.88-.06-.15-.04-.29.05-.42,2.68,2.18,5.11,4.66,6.61,7.77,3.07,6.35,5.92,12.8,8.78,19.25.5,1.12.56,2.44.83,3.67.22,1.45-.02,2.92.13,4.38,0,.21,0,.41.01.62-.04.09-.03.16.03.24.29.21.61.62.86.58.28-.04.65-.47.71-.78.54-2.74,1.02-5.48,1.51-8.23.21-.8-.07-1.64.15-2.44,0-.28.02-.57.03-.85.28-.71-.06-1.47.2-2.18.46-5.49,3.18-9.96,6.48-14.11,2.79-3.51,4.5-7.42,5.01-11.86.15-1.39.14-2.78,0-4.17-.14-.74-.29-1.48-.43-2.22-.03-.18-.05-.36-.07-.54.19.07.45.08.57.22.88.95,1.83,1.86,2.56,2.91,3.4,4.92,4.52,10.57,5.39,16.37.93,6.17.86,12.58,3.87,18.31,2,3.8,3.94,7.63,6.12,11.32,1.81,3.07,3.41,6.15,3.57,9.8.22.43,0,.91.15,1.34.01.13.02.26.03.39-.1.15-.11.31.02.45,0,.07.01.14.03.2.18.59.04,1.2.09,1.8.02.42-.04.84.04,1.26,0,.78,0,1.57,0,2.35-.09.4-.03.81-.05,1.21-.03.4.08.81-.08,1.21-.76,3.75-1.53,7.51-2.29,11.26-.06.28-.08.57-.13.85-.18.88-.15,1.76-.02,2.64.33.13.69.41.98.36.23-.05.5-.5.53-.8.63-6,2.55-11.57,5.33-16.9,1.98-3.79,3.01-7.91,3.57-12.15.35-.45-.3-1.16.39-1.52.8,3.26,1.68,6.5,2.37,9.78.45,2.12.62,4.3.91,6.45.19.59.05,1.2.09,1.8.02.42-.04.84.04,1.26,0,.35.02.7.03,1.05-.09.51-.13,1.03.02,1.54.02.28.03.56.05.84.23,1.16-.07,2.35.16,3.52.63,3.65.93,7.39,1.96,10.92,1.53,5.23,5.3,9,9.31,12.49.79.68,1.57,1.39,2.4,2.02,3.19,2.42,4.6,5.71,4.79,9.63.07.88.1,1.76-.02,2.64-.73,2.55-1.47,5.1-2.2,7.65-.23.79-.54,1.57-.66,2.38-.04.31.28.87.56.98.24.09.85-.23.97-.51,2.37-5.48,6.55-9.17,11.58-12.1,2.27-1.32,3.82-3.35,4.91-5.74.09-.2.28-.35.43-.52.05.12.12.25.14.37.29,2.78.58,5.55.87,8.33-.29.86.06,1.76-.19,2.62-.02.06-.03.13-.03.2-.26.64.05,1.34-.18,1.98-.29,6.95-3.13,12.86-7.3,18.27-2.37,3.08-4.86,6.1-6.88,9.41-2.79,4.58-3.7,9.8-4.26,15.11-.34,3.21-1.11,6.39-1.86,9.54-1.09,4.62-3.74,8.23-7.65,10.89-1.39.95-2.84,1.82-4.26,2.72-.23-.11-.31-.31-.33-.56,0-.16.01-.32.1-.47.24-.25.53-.46.62-.81.05-.09.11-.16.18-.23.1-.1.2-.2.29-.3.05-.08.11-.15.16-.22.09-.16.15-.34.27-.49.34-.35.57-.78.86-1.17.05-.08.11-.16.17-.24.06-.08.13-.14.21-.2.24-.18.54-.3.6-.66,0-.1.03-.19.06-.28.03-.1.07-.19.13-.27.12-.17.25-.33.37-.49,1.33-1.93,1.88-4.13,2.23-6.4.08-.48.2-.95.26-1.44.39-.84.26-1.73.25-2.61.45-2.3,1.06-4.55,1.66-6.81.64-2.39,1.61-4.67,2.31-7.04.2-.66.3-1.34.35-2.02.14-.67.47-1.31.38-2.02.38-2.55,1.03-5.04,1.75-7.52.1-.35.27-.66.47-.95.59-.52.23-1.37.69-1.94.1-.17.17-.36.25-.55.04-.09.09-.17.14-.25.14-.23.27-.47.33-.73.02-.09.05-.18.09-.27.05-.14.13-.26.21-.38.08-.12.17-.23.28-.33.2-.15.29-.37.38-.59,1.05-1.89,1.88-3.9,2.94-5.78.13-.27.41-.41.59-.64.05-.08.11-.16.16-.24.2-.22.3-.5.43-.77.09-.13.19-.24.32-.33.5-.35,1.05-.67.68-1.45-.35-.72-.91-.81-1.6-.62-.27.07-.57.03-.83.16-.48.16-.95.36-1.44.47-.62.16-1.15.51-1.74.73-.73.12-1.51.08-2.16.54-.92.26-1.6.99-2.48,1.31-.52.13-.69.63-1.01.97-.45.27-.78.7-1.21,1-.23.15-.41.36-.56.59-.05.07-.12.14-.19.19-.13.11-.28.19-.37.35-.04.08-.09.15-.15.21-.08.1-.16.21-.25.31-.16.15-.34.28-.45.48-.07.12-.13.24-.2.36-.06.08-.12.14-.2.2-.29.12-.55.29-.67.61-.06.07-.12.13-.19.2-.21.29-.62.42-.68.83-.02.09-.05.18-.1.26-.24.28-.5.56-.55.95-.02.09-.05.18-.08.27-.03.09-.08.17-.13.25-.06.08-.11.15-.16.23-.05.08-.1.16-.15.24-.06.07-.13.14-.2.19-.39.22-.31.66-.45,1-.11.16-.25.3-.36.46-.08.13-.15.26-.22.39-.05.09-.12.17-.19.24-.78.61-.97,1.55-1.36,2.38-.22.17-.41.41-.75.29-.47-.45-.37-1.12-.62-1.66-.02-.12-.02-.24,0-.36.09-.56.2-1.12.2-1.69.66-2.54,1.84-4.86,2.91-7.23.07-.21.11-.43.23-.62.06-.09.13-.17.2-.25.41-.26.94-.39.99-1,.03-.09.08-.18.13-.26.2-.19.42-.37.42-.69.02-.1.05-.18.09-.27.05-.08.1-.16.15-.24.04-.08.09-.16.15-.23.14-.17.28-.33.4-.51.04-.08.09-.15.14-.22.04-.08.09-.16.14-.23.03-.04.06-.07.09-.1.03-.03.06-.06.09-.1.16-.14.27-.32.32-.53.02-.09.05-.18.09-.26.09-.22.2-.43.32-.63.32-.8.75-1.55,1.29-2.23.55-.68.92-1.45,1.09-2.32.19-.5.32-1.02.37-1.55,0-.1.02-.2.04-.3.12-.44.08-.89.1-1.34.02-.1.04-.21.06-.31.1-.53.12-1.07.2-1.6.01-.12.05-.22.1-.33.6-1.09.28-2.22.14-3.34-.03-1.26-.18-2.5-.75-3.65-.05-.22-.07-.44-.08-.66-.01-.26-.02-.53-.1-.78-.03-.1-.04-.2-.05-.3,0-.44-.03-.89-.11-1.33-.14-.65-.43-1.26-.51-1.93-.03-.34-.12-.66-.21-.99-.06-.23-.07-.48-.17-.7-.31-.66-.6-1.32-1.26-1.72-.08-.05-.15-.13-.2-.21-.43-.71-.91-1.38-1.6-1.87-.08-.06-.14-.14-.2-.22-.24-.3-.23-.73-.52-1.01-.06-.07-.13-.14-.19-.21-.06-.08-.11-.16-.15-.24-.23-.44-.61-.72-1-.99-.08-.05-.15-.11-.21-.19-.26-.55-.77-.81-1.27-1.08-.09-.02-.18-.07-.26-.12-.13-.08-.24-.17-.35-.26-.08-.06-.14-.13-.2-.21-.09-.11-.16-.23-.23-.36-.17-.24-.48-.29-.69-.46-.08-.06-.15-.13-.21-.21-.37-1.01-1.31-1.4-2.08-1.98-.1-.02-.19-.05-.28-.08-.09-.04-.17-.09-.25-.15-.04-.03-.07-.07-.1-.1-.15-.17-.29-.35-.47-.49-.08-.05-.15-.11-.22-.18-.11-.1-.2-.21-.28-.33-.16-.38-.46-.58-.85-.65-.09-.04-.17-.1-.24-.16-.24-.36-.54-.65-.97-.76-.09-.02-.18-.05-.27-.07-.19-.11-.35-.28-.59-.32-.09-.03-.17-.08-.24-.13-.18-.19-.3-.44-.56-.55-.08-.03-.16-.08-.23-.13-.14-.11-.26-.23-.38-.36-.07-.06-.12-.12-.17-.19-.06-.06-.11-.13-.16-.21-.06-.07-.1-.14-.14-.22-.07-.11-.13-.22-.18-.34-.05-.07-.09-.15-.13-.23-.1-.2-.22-.39-.3-.6-.28-.57-.49-1.16-.71-1.75-.14-.35-.19-.73-.37-1.07-.05-.08-.09-.18-.12-.27-.32-.77-.78-.89-1.39-.32-.05.06-.11.12-.16.19-.05.11-.08.23-.06.36.13.35.33.68.37,1.06.05.67.47,1.24.48,1.91.5,2.43.88,4.86.63,7.38-.11,1.11.14,2.29.09,3.44-.09,2.05-.6,4.02-1.05,6.01-.23,1.01-.27,2.06-1.07,2.84-.11.05-.22.08-.34.08-.39-.03-.53-.41-.8-.6-.07-.08-.12-.17-.17-.27-.15-.54-.58-.9-.89-1.34-.06-.08-.11-.16-.14-.26-.56-.84-1.07-1.75-2.17-2-.1-.03-.18-.07-.27-.12-.12-.08-.23-.17-.33-.27-.07-.06-.13-.13-.19-.2-.09-.1-.17-.21-.25-.31-.09-.1-.15-.22-.22-.33-.13-.18-.28-.35-.43-.53-.22-.3-.45-.6-.67-.9-.06-.08-.1-.17-.13-.26-.08-.57-.24-1.08-.88-1.27-.09-.04-.17-.09-.25-.15-.08-.06-.16-.12-.23-.19-.04-.03-.07-.07-.11-.1-.08-.07-.15-.14-.22-.22-.07-.08-.14-.16-.21-.24-.14-.18-.23-.37-.29-.59-.04-.11-.06-.22-.07-.33-.25-.97-.63-1.92-.51-2.95.43-3.9,1.32-7.71,2.38-11.48,1.07-2.7,1.09-5.56,1.16-8.39.05-2.49-.01-4.98.02-7.47.02-1.46-.44-2.84-.57-4.27-.03-.3-.05-.6-.09-.9-.63-3.25-1.93-6.28-2.92-9.42-.23-1.2-.61-2.35-1.3-3.37-.1-.47-.43-.85-.51-1.32-.1-1.27-.51-2.41-1.46-3.3-.08-.06-.14-.14-.2-.22-.16-.25-.29-.51-.43-.77-.05-.08-.1-.17-.14-.26-.13-.43-.34-.81-.71-1.08-.08-.06-.15-.13-.21-.2-.07-.07-.13-.15-.19-.22-.06-.07-.12-.16-.17-.24-.09-.17-.14-.36-.23-.53-.25-.52-.52-1.04-.77-1.56-.09-.17-.17-.34-.25-.51-.05-.08-.09-.17-.13-.26-.04-.09-.08-.18-.12-.26-.05-.09-.08-.18-.11-.27-.04-.72-.28-1.38-.66-1.99-.09-.15-.2-.29-.36-.37-.08-.04-.15-.09-.22-.15-.07-.05-.13-.11-.19-.18-.05-.07-.1-.14-.15-.21-.05-.07-.1-.14-.15-.21-.06-.06-.11-.13-.15-.2-.04-.07-.08-.15-.12-.22-.05-.07-.09-.15-.13-.23-.06-.12-.12-.24-.18-.36-.18-.34-.31-.7-.46-1.05-.05-.09-.1-.18-.14-.27-.04-.09-.07-.19-.09-.29-.09-.65-.11-1.31-.4-1.92-.14-.78-.24-1.57-.34-2.35,0-.33-.15-.6-.34-.85-.05-.66-.72-.96-.9-1.55-.17-.92-.79-1.56-1.39-2.21-.32-.38-.69-.65-1.18-.32-.51.34-.11.75-.01,1.13.04.17.11.33.12.51.03.43.13.84.29,1.24.16.58-.22,1.1-.18,1.67,0,.3-.18.53-.26.8-.37.63-.19,1.32-.22,1.98-.04.9-.66,1.67-.49,2.6,0,.11,0,.22-.04.33-.08.46-.52.77-.5,1.27.02.1.02.2,0,.3-.42.62-.46,1.37-.67,2.06-.01.1-.02.19-.03.29,0,.1,0,.2,0,.3-.02.27-.2.44-.36.63-.37.47-.56,1-.54,1.61-.02.15-.09.28-.2.39-.27.29-.48.61-.48,1.02-.02.66-.5,1.06-.88,1.52-.27.32-.6.6-.66,1.05-.04.2-.13.37-.25.53-.05.08-.12.15-.19.22-.28.19-.48.42-.44.79,0,.1-.02.2-.05.29-.03.15-.08.29-.16.42-.04.09-.1.17-.17.25-.4.32-.41.83-.58,1.26-.28.39-.64.73-.83,1.18-.24.38-.82.52-.8,1.09-.06.18-.12.35-.23.51-.04.08-.1.15-.16.22-.11.14-.22.27-.32.41-.04.08-.09.15-.14.22-.09.15-.19.29-.3.43-.05.07-.12.13-.19.19-.24.13-.42.31-.49.58-.02.09-.04.18-.05.27-.04.14-.12.25-.23.35-.06.07-.13.14-.19.21-.48.78-.84,1.61-1.11,2.48-.02.1-.06.19-.1.28-.14.26-.28.52-.5.71-.11.1-.21.2-.28.33-.26.35-.51.7-.53,1.16-.22.54-.84.83-.93,1.45-.06.18-.17.33-.27.49-.2.26-.35.53-.4.86-.01.09-.03.19-.06.28-.08.19-.23.3-.41.38-.41.37-.39.98-.75,1.38-.59.35-.79.96-1.07,1.53-1.16,2.26-2.19,4.56-2.58,7.1.02.1.03.2.02.31-.11.33-.21.66-.15,1.02-.05.35-.1.71-.24,1.04-.29.55-.63,1.08-.58,1.74-.03.62-.19,1.21-.31,1.81-.35.72-.58,1.48-.56,2.28.03.9-.12,1.78-.14,2.68.05.17.1.34.11.52.08,2.15.17,4.28.73,6.38.38,1.4,1.05,2.66,1.63,3.97.18.41.55.78.4,1.3-.81,1-1.48,0-1.87-.35-1.59-1.39-3.38-2.5-5-3.85-.56-.47-.96-1.19-1.79-1.32-.1-.04-.19-.09-.27-.16-.38-.45-.54-1.09-1.16-1.33-.12-.1-.22-.21-.31-.34-.19-.34-.38-.69-.62-1-.05-.09-.1-.18-.15-.27-.06-.09-.1-.18-.15-.28-.04-.1-.07-.2-.08-.3-.07-.47-.42-.82-.54-1.27-.2-.78-.29-1.59-.43-2.38-.01-.14-.05-.3,0-.43.47-1.39-.03-2.68-.39-3.99-.05-.22-.06-.45-.08-.68-.02-.22-.05-.44-.09-.66-.02-.11-.03-.22-.02-.33.05-.71-.13-1.42-.12-2.13.28-2.42.68-4.8,1.65-7.05.07-.21.11-.43.21-.64.05-.09.1-.18.16-.27.29-.31.6-.62.69-1.06.02-.1.06-.19.1-.28.06-.13.13-.26.21-.38.05-.08.11-.16.18-.22.17-.15.3-.33.4-.53.04-.08.1-.16.15-.24.3-.7.4-1.36-.39-1.82-.55-.35-1.09-.22-1.64.02-.23.07-.46.16-.68.25-.56.46-1.13.91-1.79,1.23-.12.09-.23.19-.35.27-1.13,1.19-2.51,2.13-3.43,3.53-.1.15-.26.24-.41.33-.07.06-.15.12-.22.18-.08.05-.16.1-.25.14-.16.09-.31.2-.44.33-.03.03-.06.07-.09.1-.07.06-.14.11-.22.16-.34.14-.61.39-.83.68-.11.14-.22.28-.34.43-.09.1-.2.17-.32.24-.14.08-.31.12-.44.23-.12.1-.24.21-.33.34-.04.07-.09.13-.14.2-.05.06-.1.13-.15.19-.03.03-.05.06-.08.09-.05.07-.09.14-.12.22-.04.07-.1.14-.16.2-.1.07-.21.14-.31.22-.1.08-.2.17-.31.24-.23.17-.29.45-.47.65-.41.47-1.05.67-1.4,1.21-.63.6-.8,1.59-1.69,1.97-.27.21-.48.47-.63.77-.08.12-.17.23-.29.33-.41.34-.85.65-.93,1.25-.13.34-.43.56-.62.85-.73.43-.93,1.23-1.32,1.9-.76.89-1.03,1.97-1.25,3.08-.21.43-.57.78-.66,1.28-1.01,2.69-1.44,5.39-.14,8.12.03.1.05.21.05.31,0,.62.27,1.16.6,1.66.03.09.04.19.04.29-.03.36.15.64.33.93.04.09.07.18.08.28,0,.34.3.49.49.7.24.4.41.83.59,1.25.62,1.76,1.52,3.41,2.22,5.14.46,1.12.69,2.35,1.56,3.27.05.09.09.19.11.29.7,1.23.88,2.74,1.95,3.78.13.17.19.37.26.57.98,1.9,2.1,3.72,2.97,5.69.33.74.4,1.62,1.06,2.19.12.1.23.22.29.37.05.09.09.19.11.3-.05.88.51,1.5.95,2.16.02.09.04.19.05.29.02.57.45.92.71,1.36.11.47.33.87.7,1.19.07.06.14.12.21.19.06.07.12.15.17.23.04.08.07.17.1.26.08.22.19.42.33.61.1.22.31.35.45.53.14.25.32.47.58.61.08.06.15.14.21.22.08.13.11.28.15.43.51,1.01.89,2.07,1.2,3.15-.05.67-.42.67-.91.46-.11-.03-.2-.08-.28-.15-.12-.11-.2-.24-.25-.4-.41-.67-.78-1.36-1.35-1.91-.07-.07-.12-.15-.16-.24-.16-.31-.06-.75-.47-.93-.09-.03-.17-.08-.25-.14-.12-.09-.2-.21-.28-.33-.34-.53-.74-1.02-1.1-1.53-.19-.66-.59-1.07-1.3-1.12-.1-.04-.18-.09-.26-.15-.26-.31-.59-.52-.95-.69-1.01-.47-1.93-1.05-2.62-1.97-.36-.49-.83-.89-1.43-1.1-.08-.06-.15-.13-.21-.22-.99-1.36-2.46-1.9-3.99-2.3-.43-.11-.87-.05-1.06.48.2.96.97,1.57,1.4,2.4.07.16.06.32.07.49.91,2.57,1.3,5.3,2.49,7.78.28.58.09,1.2.19,1.8.13.79.3,1.55.57,2.3.02.19-.03.37-.04.55.17,1.7.21,3.42.48,5.08.5,3,.07,5.95-.08,8.92-.13,2.53-.71,5.05-.34,7.6.03.21.03.43,0,.65-.13,1.32-.08,2.6.22,3.93.45,2.03.62,4.13.8,6.2.13,1.58.76,2.97,1.11,4.46.08.21.17.43.3.62.47.91.84,1.86,1.3,2.78.15.29.27.57.54.75.06.08.11.16.14.25.11.45.18.93.53,1.29.08.05.15.09.23.14.1.08.15.21.21.32.04.07.09.14.13.21.03.07.07.15.11.22.04.07.07.14.1.22.04.16.13.29.26.39.06.05.12.11.17.18.08.1.16.19.22.31.04.12.09.24.13.36.12.28.37.49.41.8.02.03.05.06.07.1.08.05.13.13.15.22.98.98,1.96,1.97,2.94,2.95.24.11.4.34.63.48h-.01c.21.11.35.31.54.44h0c.16.13.3.28.44.43h0c.08.06.15.14.23.21h-.01c.09.1.19.19.34.22h-.01c.39.21.64.59.99.86h0c.41.23.75.56,1.14.82l-.02-.03c.02.2.19.19.32.22.86.56,1.64,1.26,2.57,1.72.15.28.4.6-.23.58-.32-.02-.65-.04-.97-.07-.57-.25-1.2.05-1.77-.17-8.15-.87-14.62-4.71-19.43-11.3-2.42-3.31-2.61-7.31-2.83-11.24-.21-.65,0-1.34-.13-2,0-.79-.01-1.57-.02-2.36.09-1.45.13-2.91-.02-4.36-.02-.14-.03-.27-.05-.41-.24-.71.09-1.48-.19-2.19-.95-5.85-4-10.52-8.34-14.33-1.58-1.4-3.66-2.21-5.43-3.42-1.09-.75-2.25-1.57-2.98-2.63-1.72-2.5-2.54-5.38-2.71-8.42-.27-.56.06-1.19-.19-1.76-.53-1.97-1.06-3.94-1.59-5.91-.04-.16-.07-.32-.1-.48.16.05.34.07.46.17,2.27,1.92,4.53,3.86,6.81,5.77.35.29.81.46,1.22.69.18-.42.43-.83.52-1.27.46-2.24.73-4.54,1.36-6.74.86-2.99.39-5.68-1.68-7.85-2.47-2.59-5.22-4.92-7.85-7.35-.04-.36.13-.34.37-.21,6.21,2.91,12.41,5.84,18.64,8.71.84.39,1.83.47,2.75.69-.15-.97-.14-2-.49-2.9-.37-.96-.99-1.85-1.65-2.66-2.09-2.57-3.16-5.55-3.67-8.77-.15-.95-.3-1.9-.45-2.85-.16-1.03-.1-2.06-.03-3.1.61-7.31,3.67-13.56,8.17-19.22,1.77-2.23,3.75-4.14,6.22-5.6,1.1-.65,2.2-1.65,2.77-2.76,1.62-3.13,3.01-6.39,4.38-9.64.43-1.01.53-2.16.78-3.25.14-1.24.15-2.49,0-3.73-.09-.49-.18-.99-.26-1.48.42.36.91.66,1.25,1.08,2.92,3.57,5.86,7.12,8.67,10.78.76.99,1.08,2.31,1.6,3.49.22.57-.09,1.19.19,1.75.32.14.68.43.96.37.22-.05.43-.5.51-.82.09-.33.04-.7.05-1.06.16-.3.13-.59.02-.89,0-.13.01-.26.02-.39.07-1.68.14-3.35-.04-5.03-.31-1.25-.34-2.68-.99-3.73-2.02-3.26-1.69-6.66-1.07-10.14.41-2.3.79-4.61,1.18-6.92.28-.71-.07-1.47.2-2.18" style="fill:#fec833;"/></g></g></g></g></svg>