<?xml version="1.0" encoding="UTF-8"?><svg id="b" xmlns="http://www.w3.org/2000/svg" xmlns:xlink="http://www.w3.org/1999/xlink" viewBox="0 0 139.93 196.39"><defs><clipPath id="e"><rect y="0" width="139.93" height="196.39" style="fill:none;"/></clipPath><clipPath id="f"><rect y="0" width="139.93" height="196.39" style="fill:none;"/></clipPath></defs><g id="c"><g id="d"><g style="clip-path:url(#e);"><g style="clip-path:url(#f);"><path d="m39.94,51.26c0-.62,0-1.25,0-1.87-.02-.16-.02-.32-.09-.46-.96-2.53-1.92-5.05-2.85-7.6-.15-.4-.12-.87-.17-1.31.43.11,1.03.07,1.25.36,2.49,3.19,4.92,6.44,7.37,9.67,1.91,2.52,3.81,5.05,5.72,7.57.13.17.33.27.5.41.03-.2.12-.41.09-.6-.26-1.48-.22-3.16-.89-4.39-1.87-3.42-1.66-6.93-1.06-10.56.39-2.32.9-4.64,1.09-6.98.75-9.1-2.33-16.76-7.91-23.44-.11-.13-.28-.23-.34-.38-.14-.39-.23-.8-.34-1.2.39-.05.87-.29,1.15-.12,1.61.95,3.3,1.83,4.71,3.05,2.61,2.26,4.65,5.09,6.23,8.27,3.18,6.39,6.02,12.94,8.15,19.82.05.16.13.32.19.47.08-.18.21-.34.24-.53.05-.31.05-.63.06-.95.13-.28.04-.59.08-.88-.25-7.52,2.5-13.83,6.88-19.48,2.41-3.11,3.59-6.76,3.98-10.73.03-.16.04-.32.06-.48,0-.69,0-1.39,0-2.08-.04-.22.03-.46-.09-.66-.44-1.58-.92-3.15-1.32-4.74-.11-.45,0-.96.01-1.45.44.11.96.09,1.31.35,5.79,4.16,8.3,10.41,9.46,17.41.86,5.16,1.38,10.39,2.23,15.56.34,2.05.96,4.12,1.83,5.99,1.94,4.16,3.93,8.31,6.23,12.25,2.25,3.86,2.99,7.99,3.05,12.39.17,1.7.02,3.41.09,5.11.01.33-.22.8.31.95,1.89-4.1,3.56-8.32,4-12.88.22-2.34-.21-4.74-.31-7.12-.02-.42.15-.85.24-1.27.36.23.87.36,1.05.69,2.57,4.77,4.2,9.91,4.69,15.37.47,5.26.68,10.54,1.01,15.82.23,3.67.61,7.3,1.89,10.76,1.62,4.41,4.58,7.7,7.83,10.75.89.84,1.78,1.69,2.72,2.47,2.99,2.48,4.21,5.86,4.48,9.75.13.85.03,1.71.05,2.56-.2,1.3-.41,2.6-.61,3.9.09,0,0,.24.17.15,2.19-2.65,4.88-4.6,7.66-6.46,2.76-1.84,4.26-4.62,4.86-8.01.07-.4.46-.74.7-1.11.28.33.71.61.82.99,1.48,5.26,1.73,10.61,1.35,16.1-.55,7.94-3.47,14.67-8.28,20.59-3.89,4.78-7.02,9.99-8.05,16.36-.65,4.03-1.14,8.08-1.76,12.11-1.42,9.29-7.17,14.66-14.72,18.35-1.64.8-3.35,1.46-5.03,2.18-1.04.86-2.35,1.03-3.52,1.55-1.26.56-2.68.61-3.88,1.35-.28.17-.57.05-.85.03-.19,0-.38.04-.57.02-.98-.13-1.87.39-2.82.47-.76-.24-1.53-.33-2.33-.3-.44.02-.75.17-1.05.45-1.04-.27-1.98.41-3,.35-.95-.02-1.9-.11-2.85-.04-1.01.07-2.04.54-3.01.41-2.64-.36-5.26-.93-7.88-1.43-.99-.19-1.98-.4-2.98-.6-.3.07-.55-.14-.84-.18-.19.01-.38.02-.57.03-.59-.09-1.15-.36-1.74-.44-1.61-.18-3.18-.72-4.82-.71-1.08-.73-2.28-1.19-3.44-1.71-.38-.17-.78-.33-1.16-.51-4.73-.92-9.53-1.54-14.16-2.83-5.55-1.55-9.83-5.33-13.23-10.22-2.18-3.14-2.6-6.89-2.83-10.62-.23-3.69-.22-7.39-.31-11.08-.01-.16-.03-.32-.06-.47-1.1-7.18-4.54-12.89-10.62-16.01-4.13-2.11-5.87-5.45-6.86-9.64-.56-2.38-.59-4.89-1.04-7.31-.56-3.03-2.05-5.38-4.83-6.65-.31-.14-.45-.71-.67-1.08.43-.1.94-.4,1.28-.26,3.94,1.65,7.56,3.87,10.63,7.03.18.19.41.34.61.5.09-.25.21-.49.27-.74.38-1.53.69-3.09,1.14-4.6.68-2.26.3-4.31-1.12-6.03-1.48-1.79-3.04-3.54-4.73-5.09-1.98-1.81-4.16-3.36-6.21-5.09-.39-.33-.54-.98-.79-1.48.51-.02,1.06-.19,1.51-.04,7.51,2.57,14.61,6.15,21.56,10.08.16.09.35.12.53.18-.05-.22-.06-.47-.17-.65-.32-.58-.62-1.18-1.03-1.68-2.78-3.51-3.58-7.78-4.13-12.15-.04-.07-.04-.15-.01-.22-.01-.13-.03-.26-.04-.4,0-.86-.02-1.72,0-2.58.01-.13.03-.26.04-.39-.04-.08-.03-.15.02-.22.86-8.85,4.81-16.06,10.49-22.31.9-.99,2.16-1.6,3.19-2.47.83-.71,1.82-1.42,2.28-2.38,1.39-2.87,2.59-5.85,3.78-8.83.39-.99.51-2.1.75-3.16.13-.21.05-.45.1-.66" style="fill:#fec833;"/></g></g></g></g></svg>