<?xml version="1.0" encoding="UTF-8"?><svg id="b" xmlns="http://www.w3.org/2000/svg" xmlns:xlink="http://www.w3.org/1999/xlink" viewBox="0 0 131.8 189.23"><defs><clipPath id="e"><rect width="131.8" height="189.23" style="fill:none;"/></clipPath><clipPath id="f"><rect width="131.8" height="189.23" style="fill:none;"/></clipPath></defs><g id="c"><g id="d"><g style="clip-path:url(#e);"><g style="clip-path:url(#f);"><path d="m1.12,82.05c2.39-14.17,8.74-25.92,20.86-34.14,2.95-2,5.95-3.94,8.91-5.94.72-.49,1.07-.38.93.49-.39,2.56-.72,5.14-1.29,7.66-1.07,4.81-2.29,9.6-3.45,14.39-.02.71-.01,1.42,0,2.13.9,4.38,1.78,8.77,2.76,13.13.11.51.82.89,1.26,1.33.16-.59.49-1.2.44-1.77-.15-1.78-.44-3.55-.67-5.33-.13-.16-.11-.33-.03-.5l-.04-.39c-.01-.18-.05-.36-.03-.54,0-.52,0-1.03,0-1.55.02-.25,0-.51.06-.76.01-.13.02-.26.03-.4-.06-.09-.05-.18.01-.27.45-7.64,3.01-14.59,6.89-21.11,2.11-3.55,4.19-7.13,6.18-10.76,2.93-5.34,5.87-10.68,8.6-16.13,2.19-4.37,3.3-9.07,3.37-13.98-.03-.38-.02-.77,0-1.15-.05-.76-.09-1.53-.14-2.29-.12-.16-.11-.33-.02-.5-.01-.21-.03-.41-.04-.62-.05-.25-.03-.51-.05-.77-.04-.6-.09-1.2-.13-1.8-.1-.15-.09-.32-.04-.49.27.04.66-.02.78.13,2.5,3.35,4.99,6.71,7.42,10.11,4.41,6.16,7.52,12.97,10.02,20.1,1.46,4.16,3.2,8.21,4.68,12.36,3.61,10.11,4.97,20.3,1.04,30.69-.69,1.81-.98,3.77-1.45,5.66.14.71-.04,1.44.11,2.15.51,1.3.96,2.62,1.57,3.88.15.32.77.42,1.18.62.17-.42.49-.85.47-1.27-.07-1.48-.26-2.96-.4-4.43-.19-.31-.07-.64-.1-.97,0-.29-.01-.57-.02-.86.04-.25-.04-.51.11-.74.3-1.07.49-2.18.91-3.19,1.63-3.97,3.34-7.91,5.02-11.86.11-.26.3-.5.46-.74.12.27.3.53.35.82.73,4.51,3.26,8.05,6.12,11.42,3.79,4.48,7.31,9.21,11.42,13.37,4.74,4.8,6.46,10.65,7.27,16.98.38,2.94.45,5.93.67,8.89.03.11-.08.2-.04.32-.02.14-.04.29-.06.43.04.09.03.18-.02.26-.53,3.77-1.93,7.16-4.41,10.09-.32.38-.32,1.04-.47,1.58.58-.07,1.27.03,1.72-.25,2.48-1.52,4.89-3.14,7.34-4.71.25-.16.58-.19.87-.29.19-.19.48-.03.68-.18.23,0,.47,0,.7,0,.59.22,1.23-.09,1.82.19,3.43.61,6.85,1.21,10.28,1.83.12.02.23.13.34.21-.19.18-.37.39-.58.54-3.88,2.72-7.13,6.11-9.72,10.03-1.8,2.73-3.33,5.69-4.66,8.68-2.46,5.54-4.48,11.22-5.39,17.28-.68,4.53-1.33,9.14-2.81,13.44-1.48,4.31-4.2,8.09-8.14,10.74-.21.05-.36-.04-.49-.2-.39-1,.39-1.64.88-2.21,2.4-2.76,3.06-6.07,3.44-9.55.38-3.59,1.32-7.07,2.36-10.52.42-1.39,1.07-2.73,1.44-4.1.44-1.65,1.11-3.26,1.29-4.98.28-2.59.97-5.11,1.43-7.67,0-.17,0-.34.04-.5.04-.15.1-.29.14-.44.01-.1.03-.2.06-.29.03-.09.08-.18.12-.27.06-.13.12-.27.2-.39.17-.24.37-.46.42-.76.05-.19.1-.39.13-.59.14-.33.4-.61.43-.98.46-.79.5-1.75,1.03-2.52.08-.14.15-.28.21-.42.03-.1.07-.2.12-.29.34-.28.27-.78.58-1.07.14-.16.27-.32.38-.5.09-.66.46-1.22.79-1.76,1.12-1.86,1.89-3.94,3.29-5.63.24-.29.41-.62.59-.95.06-.09.13-.17.2-.25.07-.08.16-.14.24-.2.37-.78-.09-1.5-.94-1.39-.45.06-.9.14-1.34.23-2.15.78-4.38,1.33-6.49,2.22-.19.1-.41.13-.61.21-.1.04-.2.07-.3.09-.63.05-.95.52-1.3.95-.07.07-.14.14-.22.21-.2.16-.32.4-.53.55-.73.51-1.32,1.15-1.89,1.82-.1.18-.22.34-.35.5-.05.09-.12.17-.2.24-.12.11-.25.2-.39.27-.58.29-1.02.72-1.34,1.29-.07.08-.14.16-.22.22-.76.76-1.35,1.63-1.64,2.68-.04.1-.09.2-.13.3-.06.15-.13.3-.26.41-.09.07-.18.12-.27.18-.48.25-.68.65-.66,1.17-.1.32-.33.56-.51.84-.66.94-1.34,1.86-1.66,2.99-.49.41-.31,1.56-1.42,1.3-.17-.11-.28-.26-.35-.44-.08-.31-.06-.63-.02-.94.08-4.13,1.73-7.77,3.53-11.37.07-.22.11-.44.21-.65.07-.14.18-.27.27-.4.08-.13.15-.27.24-.4.06-.08.13-.17.19-.24.07-.08.13-.16.2-.24,1.49-1.92,2.87-3.92,3.91-6.13.1-.16.19-.35.33-.48.07-.06.13-.12.19-.19.1-.14.19-.29.27-.44.04-.08.07-.16.11-.24.04-.08.08-.16.13-.24.05-.08.1-.16.14-.24.08-.13.15-.26.19-.4.49-1.77.77-3.59,1.05-5.4.01-.22.06-.43.1-.65.1-.43.11-.86.01-1.29-.02-.1-.03-.21-.03-.32,0-.15-.05-.31-.05-.46-.02-.1-.01-.2,0-.3,0-.15.03-.29.04-.44-.02-.24-.03-.48-.04-.73-.01-.24-.02-.49-.08-.73-.03-.1-.05-.2-.05-.3,0-.11,0-.21.04-.31.03-.16.05-.32.06-.49.09-1.51-.39-2.91-.77-4.33-.02-.45-.03-.91-.07-1.36,0-.17,0-.34-.01-.51-.02-.16-.04-.33-.07-.49-.7-1.98-1.31-4-3-5.44-.12-.1-.24-.2-.31-.34-1.7-3.03-4.55-5.02-6.84-7.52-.19-.72-.73-.97-1.4-1.06-1.89-1.66-3.96-3.08-5.97-4.58-1.27-.94-1.96-2.31-2.48-3.77-.23-.65-.42-1.31-.69-1.94-.09-.18-.17-.36-.26-.54-.06-.1-.14-.2-.23-.28-.06-.03-.12-.06-.19-.09-.1-.01-.21-.02-.31-.02,0,0-.11,0-.11,0,0,0-.11-.02-.11,0-.08,0-.16.02-.24.05-.11.08-.18.19-.21.32-.08.42.18.75.26,1.14.17.64.51,1.24.5,1.92.12.74.11,1.5.43,2.2.07.23.17.46.19.71.02.26.02.52.03.77.19,1.02.08,2.06.04,3.08-.09,2.43.15,4.87-.22,7.31-.32,2.11-.78,4.19-1.37,6.23-.33,1.13-.64,1.18-1.81.74-.11-.07-.2-.16-.27-.27-.19-.41-.16-.93-.6-1.22-.08-.07-.15-.16-.2-.26-.15-.31-.18-.7-.58-.84-.1-.03-.2-.08-.29-.13-.09-.06-.17-.13-.24-.22-.07-.08-.13-.18-.18-.27-.21-.65-.83-.79-1.34-1.08-1.1-.91-1.94-2.05-2.76-3.2-.6-.84-1.19-1.67-1.92-2.41-1.17-1.17-.93-2.67-.9-4.11.02-.18.05-.35.08-.52.06-.35.01-.7,0-1.06,0-.12.03-.24.06-.36.87-2.67,1.07-5.49,1.9-8.17.55-1.8,1.01-3.62,1.18-5.49,0-.22.02-.43.04-.65.01-.19.03-.38.03-.58,0-.14,0-.28-.01-.42-.01-.15-.02-.31-.02-.46,0-.23.02-.45.01-.68.18-1.94.18-3.88.17-5.82,0-.31,0-.62,0-.92,0-.18,0-.36.02-.55.03-1.05.38-2.1.06-3.16,0-.23.02-.45.02-.68,0-.16,0-.32-.01-.48-.02-.15-.04-.31-.05-.46-.01-.2-.02-.4-.02-.61,0-.2,0-.4,0-.6,0-.36,0-.72-.09-1.07-.22-2.02-.7-3.97-1.42-5.86-.19-.29-.26-.62-.35-.95-.04-.11-.07-.21-.1-.32-.02-.11-.03-.22-.04-.34-.06-1.22-.64-2.29-1.04-3.4-1.45-3.96-2.98-7.9-5.26-11.48-1.92-3.01-3.18-6.38-5.07-9.4-.06-.09-.09-.2-.12-.3-.05-.21-.1-.42-.22-.6-.12-.18-.16-.39-.22-.59-.02-.1-.05-.21-.07-.31-.33-.75-.53-1.54-.76-2.32-.11-.2-.16-.41-.19-.63.09-1.37-.41-2.53-1.25-3.58-.17-.75-.42-1.45-.97-2.01-.06-.07-.11-.15-.17-.22-.06-.06-.13-.13-.2-.19-.07-.05-.15-.11-.22-.15-.08-.04-.16-.08-.25-.12-.26-.07-.51-.13-.62.22-.01.09-.02.19-.02.28,0,.2.08.4.07.6-.02.11-.03.22-.05.33.2,1.47-.13,2.94-.03,4.41-.01.12-.02.23-.02.35-.01.11-.02.23-.01.34,0,.11.01.22.01.33,0,.16-.01.32-.06.48-.27.42-.03.9-.16,1.34-.06.15-.11.29-.12.45,0,.22-.06.41-.17.6-.28.6-.6,1.19-.72,1.86-.03.2-.13.39-.15.59,0,.11-.03.21-.06.31-.28.75-.76,1.43-.72,2.27-.06.79-.75,1.36-.73,2.17-.09.32-.15.64-.29.95-.32.29-.57.63-.67,1.06-.16,1.24-1.36,1.85-1.79,2.93-.02.1-.06.2-.1.3-.04.1-.09.19-.14.28-.34.33-.46.77-.59,1.2-.9,2-2.11,3.79-3.56,5.42-.05.13-.09.27-.11.41-.01.1-.03.19-.06.28-.13.21-.22.45-.4.63-.31.17-.57.38-.64.75-.25.31-.54.61-.55,1.05-.29.36-.59.72-.58,1.22-.33,1.05-1.23,1.77-1.62,2.79-.06.2-.06.42-.18.6-.71.84-1.32,1.74-1.62,2.83-.25.89-1.31,1.3-1.39,2.3-1.84,1.75-2.46,4.08-3.08,6.41,0,.12-.03.23-.07.34-.71.93-.6,2.07-.81,3.12-.39.63-.34,1.38-.59,2.05-.08.62-.81,1.07-.5,1.8-.06.48-.1.96-.28,1.41-.22.31-.29.68-.37,1.05-.64,2.22-.66,4.47-.35,6.74.07.49.07.98.08,1.47.04.18.08.36.1.55.06,1.55.29,3.05,1.04,4.43.06.11.09.22.11.33.2,1.38,1.15,2.44,1.56,3.74.17.53.4,1.04-.37,1.27-.11.02-.23.02-.35.02-.23-.03-.43-.14-.62-.26-.1-.05-.18-.11-.26-.18-.17-.19-.38-.32-.62-.42-.22-.14-.42-.3-.57-.52-.16-.56-.57-.75-1.1-.78-.1-.02-.2-.05-.29-.09-.14-.05-.27-.12-.41-.18-.1-.03-.18-.08-.27-.13-.17-.11-.34-.23-.49-.36-.43-.38-.82-.8-1.23-1.19-.26-.58-.72-.94-1.3-1.17-.09-.04-.18-.1-.26-.16-.46-.46-.78-1.08-1.47-1.27-.11-.03-.2-.08-.29-.14-.14-.09-.26-.2-.37-.32-.08-.07-.15-.16-.22-.24-.13-.18-.21-.38-.31-.57-.95-1.26-1.74-2.6-2.02-4.18-.09-.19-.17-.39-.24-.59-.04-.1-.07-.2-.08-.31-.02-.16-.02-.32,0-.47.02-.15.07-.29.14-.43.12-.32.08-.64-.03-.96-.03-.09-.05-.18-.06-.27-.01-.09-.01-.18,0-.27-.01-.09-.03-.17-.05-.26-.08-.17-.18-.33-.21-.51-.02-.19-.02-.38-.05-.57-.01-.09-.02-.19-.02-.28,0-.19-.05-.37-.11-.55-.06-.14-.09-.28-.1-.44,0-.16-.02-.32-.04-.48-.03-.17-.05-.34-.06-.52-.09-1.24-.26-2.47-.35-3.71-.02-.12-.02-.25-.01-.37.27-2.96.95-5.82,2.16-8.54.25-.57.57-1.08,1-1.53.26-.33.56-.65.73-1.04.07-.18.11-.38.13-.57.05-.2-.06-.39-.03-.59.1-.89-.47-1.01-1.15-1.01-.1.01-.2.02-.3.03-.15,0-.3.01-.45.02-.2.02-.41.01-.59.13-1.54.89-2.9,1.94-4.15,3.24-1.45,1.51-2.74,3.26-4.75,4.15-1.69,1.46-3.11,3.18-4.63,4.8-.07.08-.14.15-.21.23-.15.14-.29.29-.41.45-.06.08-.13.16-.19.23-.61.3-.98.83-1.34,1.38-.04.09-.09.18-.15.26-.21.22-.4.45-.56.72-.06.09-.12.17-.19.25-.51.8-1.41,1.27-1.85,2.13-.26.37-.55.71-.73,1.12-.09.18-.19.35-.25.54-.16.3-.43.55-.43.93-.28.55-.76,1-.84,1.65-.02.1-.03.2-.04.3,0,.15-.02.3-.08.44-.12.21-.21.43-.29.66-.07.17-.19.32-.22.52,0,.1-.03.2-.07.29-.14.27-.32.52-.29.85-.02.17-.05.33-.08.49-.22.92-.44,1.83-.64,2.75-.11.52-.15.96.12,1.41.1.23.03.46.02.69-.04.41.06.78.29,1.12.05.1.08.2.1.31-.02.42.2.78.3,1.17.15.72.32,1.44.64,2.12.07.3.17.58.34.84.05.15.08.29.11.44.08.36.29.65.51.93.26.41.25.94.57,1.32,1.79,4.01,3.48,8.06,5.35,12.03.2.43.61.68.87,1.05.11.26.16.54.28.8,1.38,2.5,2.97,4.88,3.86,7.62.15.47.63.67.75,1.13.07.26.21.49.32.74.05.09.09.19.13.29.02.1.03.2.04.31,0,.57.46.88.71,1.31.03.1.06.2.08.3.05.36.28.63.48.92.04.14.1.28.16.41.09.28.26.51.46.72.05.08.1.16.14.25.11.22.25.41.42.59.1.11.19.23.25.37.07.19.16.37.22.57.42.71.86,1.41,1.55,1.9.16.15.35.28.46.48.04.11.07.22.1.33.26.99.63,1.94.94,2.91.14.44.31.88-.13,1.25-.11.07-.22.11-.35.13-.19.02-.37-.01-.55-.1-.11-.06-.2-.14-.28-.23-.11-.13-.21-.28-.3-.42-.68-.73-1.18-1.58-1.63-2.46-.75-1.46-1.58-2.85-2.7-4.05-.11-.16-.15-.36-.29-.5-.23-.19-.52-.18-.78-.28-.1-.03-.19-.07-.28-.11-.23-.12-.45-.25-.66-.39-.09-.06-.17-.13-.24-.2-.47-.64-1.19-.77-1.89-.97-.21-.08-.38-.21-.52-.38-.17-.31-.29-.67-.7-.77-.11-.02-.21-.05-.31-.09-.09-.05-.18-.11-.26-.18-.57-.48-.97-1.12-1.5-1.64-.44-1.09-1.44-1.44-2.42-1.82-.7-.18-1.4-.35-2.12-.12-.06.05-.12.1-.16.16-.02.08-.04.15-.03.23.02.09.04.17.07.26.48.69,1.12,1.27,1.38,2.1.02.11.04.22.06.34,1.06,3.6,2.2,7.18,3.28,10.78.08.3,0,.61.07.91.04.25.09.49.15.74.05.33.05.65,0,.98.26,2.34.38,4.69.65,7.03.29,2.53-.04,5.03-.31,7.54-.05.42-.12.83-.09,1.25.12,1.07-.13,2.14,0,3.21-.04.12-.08.24-.11.37-.33,1.59-.2,3.17-.01,4.76.01.19.07.38.01.57-.25.94-.28,1.83.07,2.79.43,1.18.47,2.48.5,3.73.02,1.46.48,2.84.59,4.28.09,1.2.6,2.27,1,3.38.19.3.12.7.35.99.71,1.19.94,2.64,1.99,3.64.07.08.12.17.15.27.23.39.16.91.5,1.26.09.05.17.11.25.17.1.12.13.27.16.42.33.56.62,1.14,1,1.67.52.56.88,1.23,1.35,1.84.25.15.36.41.53.63,1.46,1.39,2.92,2.78,4.37,4.17.35.18.63.46.99.62.05.03.1.06.13.11.28.34.73.49.99.85.06.02.11.05.17.07.45.2.83.53,1.23.81h.01c-.01.19.08.24.24.23.05.01.1.04.15.07.98.68,1.93,1.42,3.04,1.89.43.28.87.54,1.23.91.04.06.09.11.12.18.11.26.18.5-.25.49-5.55-2.88-11.07-5.81-15.32-10.56-.26-.29-.5-.58-.77-.86-7.65-8.17-9.53-18.24-9.58-28.92-.03-.24-.07-.47.07-.69.11-2.05.21-4.1.32-6.15.08-.33.03-.67.06-1,.01-.22.03-.44.04-.66-.07-.24-.09-.48.02-.72.14-7.43.53-14.9-1.61-22.14-.93-3.14-1.77-6.38-4.34-8.73.45-.65,1.06-.29,1.62-.25,3.02.16,6.03.36,9.05.47,1.04.04,1.27-.63.76-1.47-1.95-3.2-3.63-6.63-5.97-9.52-3.13-3.87-3.93-8.3-4.36-12.95-.08-.16-.08-.32-.01-.49,0-.68,0-1.36,0-2.05-.07-.17-.07-.33.02-.49" style="fill:#eb4c4d;"/></g></g></g></g></svg>