<?xml version="1.0" encoding="UTF-8"?><svg id="b" xmlns="http://www.w3.org/2000/svg" xmlns:xlink="http://www.w3.org/1999/xlink" viewBox="0 0 71.95 116.92"><defs><clipPath id="e"><rect y="0" width="71.95" height="116.92" style="fill:none;"/></clipPath><clipPath id="f"><rect y="0" width="71.95" height="116.92" style="fill:none;"/></clipPath></defs><g id="c"><g id="d"><g style="clip-path:url(#e);"><g style="clip-path:url(#f);"><path d="m35.33,49.74c-.12.6-.24,1.2-.35,1.81-.2,1.16.54,1.84,1.61,1.35.78-.36,1.52-.91,2.14-1.52,2.35-2.3,3.59-5.21,4.39-8.34.04-.17.11-.32.17-.49.1.15.26.28.3.45.19.7.34,1.42.5,2.12.15.93.14,1.85,0,2.78-.27,1.47-.54,2.94-.83,4.41-.26,1.3-.3,2.53.95,3.41,1.29.91,2.68,1.05,4,.23,4.38-2.75,8.85-5.39,12.34-9.33.74-.83,1.49-1.65,2.24-2.47.12-.13.29-.22.43-.33.07.16.18.32.2.49.11.87.19,1.75.28,2.63.05.17.08.35.05.53.02.67.05,1.35.07,2.02-.15.3.03.66-.15.96-1.1,1.89-2.11,3.85-3.33,5.66-1.63,2.44-3.58,4.67-5.1,7.17-1.87,3.08-2.58,6.57-2.71,10.17-.14.86-.01,1.73-.07,2.59.18.78.37,1.55.55,2.33.75-.37,1.66-.57,2.21-1.14,1.62-1.67,3.09-3.49,4.62-5.24.14-.17.29-.32.44-.49.03.2.11.41.08.59-.65,3.79-1.37,7.58-1.95,11.38-.3,1.95-.36,3.93-.53,5.9-.07.05-.09.09-.07.14.02.05.04.08.06.08-.01.14-.02.28-.03.42-.21.54.06,1.12-.16,1.66-.02.45-.04.89-.07,1.34-.06.1-.05.21-.02.31-.01.11-.02.22-.04.33-.09.56.07,1.14-.11,1.7.06,1.87-.03,3.77.22,5.61.39,2.9,2.45,3.96,4.92,2.4,1.85-1.17,3.46-2.76,5.09-4.26,1.27-1.16,2.4-2.47,3.61-3.71.15-.16.35-.27.52-.41.05.24.15.48.14.72-.21,5.01-2.25,9.14-6.22,12.19-4,3.08-8.41,5.33-13.58,5.67-1.64.16-3.28.15-4.91,0-2.37-.32-4.75-.57-7.1-.98-3.46-.6-6.5.46-9.39,2.17-.89.53-1.7,1.18-2.53,1.79-.6.44-.92.56-1.66-.1-1.95-1.75-3.99-3.5-6.26-4.77-4.61-2.59-8.49-5.81-11.27-10.38-2.01-3.3-4.31-6.42-6.48-9.63.35-.72.92-.28,1.4-.27.1,0,.21,0,.31,0,.72.32,1.51-.04,2.23.21,3.01.48,6.04.86,9.03,1.46,1.83.37,3.47,1.2,3.79,3.39.03.22.12.51.28.62.57.38,1.32,1.1,1.76.96,1.01-.33.55-1.23.21-1.92-.32-.65-.67-1.28-1.01-1.92-.19-.3-.03-.65-.14-.96.02-1.68.05-3.37.07-5.05-.05-.17-.02-.35-.03-.53,0-.13,0-.27.02-.4,0-.16.02-.31.03-.47-.06-.46-.1-.91.02-1.37v-2.55c-.12-.28-.05-.58-.07-.87-.03-.4.07-.82-.07-1.21-1.45-11.02-4.97-21.33-10.84-30.77-1.47-2.36-3.53-4.33-5.25-6.54-1.41-1.82-2.7-3.72-4.04-5.59-.1-.15-.16-.33-.24-.49.18.03.36.04.53.09,3.15.93,6.3,1.89,9.46,2.79,4.53,1.29,8.14,4.01,11.37,7.31.19.19.25.52.35.8.23.64.29,1.42.71,1.87.41.44,1.18.55,1.79.81.14-.62.6-1.52.35-1.8-2.23-2.56-.94-5.16-.18-7.7,1.27-4.26,2.22-8.56,2.44-13.01.06-.11.04-.21.02-.33,0-.11.02-.22.03-.33.05-.41-.02-.84.06-1.25,0-1.06,0-2.12,0-3.18-.07-.42-.01-.84-.05-1.26-.01-.19-.03-.38-.04-.57.06-.18.08-.36-.02-.54-.74-4.68-1.47-9.36-2.21-14.04-.34-2.17-.71-4.34-1.05-6.51C23.52.39,23.57.19,23.59,0c.11.14.27.26.33.42,2.75,7.33,6.49,14.31,7.71,22.19.79,5.07,1.85,10.1,2.68,15.16.45,2.73.69,5.5,1.02,8.26.13.24.1.49.07.74.03.52.05,1.03.08,1.55-.15.46.06.96-.14,1.42" style="fill:#fec60b;"/></g></g></g></g></svg>