<?xml version="1.0" encoding="UTF-8"?><svg id="b" xmlns="http://www.w3.org/2000/svg" xmlns:xlink="http://www.w3.org/1999/xlink" viewBox="0 0 130.3 189.23"><defs><clipPath id="e"><rect width="130.3" height="189.23" style="fill:none;"/></clipPath><clipPath id="f"><rect width="130.3" height="189.23" style="fill:none;"/></clipPath></defs><g id="c"><g id="d"><g style="clip-path:url(#e);"><g style="clip-path:url(#f);"><path d="m128.89,117.58c1.52.17,1.79.67.9,1.81-.5.65-1.07,1.3-1.73,1.77-7.04,5.04-11.15,12.09-14.4,19.94-2.79,6.73-3.6,13.83-4.92,20.85-1.44,7.65-5.32,13.58-12.08,17.55-1.37.8-2.75,1.59-4.13,2.38-.16.02-.28.11-.35.25-.19.12-.39.25-.58.37-.05.17-.14.31-.3.39l.02.06c-.1.11-.21.2-.35.26-.42.05-.68.36-.98.61-.09.04-.19.08-.28.11-1.79.49-3.45,1.33-5.21,1.88-.98.31-2.03.44-2.81,1.24-.14.14-.41.04-.62-.03-.14-.03-.27-.08-.41-.14-.07-.02-.15-.07-.21-.04-1.35.56-2.89.17-4.21.86-.29.15-.67.37-.89.09-.65-.82-1.35-.29-2.04-.18-.64.1-1.25.26-1.71.77-.33.36-.67.63-1.19.32-.31-.18-.51.18-.77.25-.15.05-.31.06-.47.04-.55-.24-1.11-.11-1.67-.09-.54.07-1.06-.15-1.6-.09-.5.04-1.01.09-1.51.13-.09-.03-.18-.02-.27.03-.12,0-.25.01-.37.02-.09-.06-.17-.05-.26.01-10.7.92-20.98-1.21-30.82-5.09-6.11-2.41-11.31-6.42-16.25-10.96-4.93-4.53-5.99-10.47-8.09-16.11-2.33-6.25-1.55-12.7-1.06-19.12.18-.72-.02-1.46.12-2.18,0-4.12,0-8.24,0-12.36-.13-.5.06-1.02-.12-1.52-1.02-3.79-1.81-7.67-3.15-11.34-.56-1.53-2.3-2.64-3.49-3.95-.25-.27-.66-.6-.63-.85.03-.27.49-.68.78-.7,1.39-.13,2.8-.21,4.2-.2,1.94.01,3.89.13,5.83.15.12,0,.44-.6.35-.74-1.94-3.25-3.96-6.46-5.9-9.71-1.88-3.15-2.07-6.72-2.46-10.24-.04-.89-.03-1.77,0-2.66.01-.13.03-.26.04-.39-.04-.09-.03-.18.02-.26,2.36-13.81,8.64-25.19,20.45-33.16,3.06-2.06,6.15-4.08,9.21-6.12,1.66-1.11,2.07-.93,2.28,1.03.02.22.04.43.06.65.05.08.06.17.02.26.01.13.02.26.03.38,0,.88.08,1.77-.05,2.65-.99,3.59-1.96,7.18-2.99,10.76-.97,3.4-1.72,6.81-1.37,10.38.03.31.16.61.24.92.07-.28.18-.55.21-.83.84-7.77,3.74-14.73,8.09-21.18,1.35-2,2.38-4.22,3.53-6.35,2.94-5.48,5.96-10.92,8.78-16.46,3.58-7.03,3.54-14.5,2.32-22.08-.08-.52.19-1.1.29-1.66.48.22,1.11.32,1.43.68,8.21,9.22,14.89,19.36,18.84,31.18,1.31,3.91,2.99,7.69,4.38,11.57,2.6,7.23,4.06,14.64,3.09,22.37q-.09.47.26.47c.97-2.42,1.9-4.85,2.92-7.24.18-.42.7-.69,1.07-1.03.28.38.72.72.82,1.14.75,3.19.97,6.57,3.06,9.3,1.51,1.98,3.18,3.83,4.76,5.75,2.91,3.55,5.8,7.11,8.72,10.67.92,1.12,1.81,2.27,2.81,3.31,2.1,2.16,2.84,4.93,3.51,7.71,1.27,5.32,2.55,10.66,1.64,16.19-.3,1.84-1.02,3.61-1.54,5.41-.06.2-.09.41-.13.61.21-.07.47-.08.64-.2,2.98-2.18,6.18-2.46,9.69-1.46,2.07.59,4.25.8,6.38,1.18.86.12,1.71.12,2.57,0" style="fill:#eb4c4d;"/></g></g></g></g></svg>