<?xml version="1.0" encoding="UTF-8"?><svg id="b" xmlns="http://www.w3.org/2000/svg" xmlns:xlink="http://www.w3.org/1999/xlink" viewBox="0 0 104.71 163.87"><defs><clipPath id="e"><rect y="0" width="104.71" height="163.87" style="fill:none;"/></clipPath><clipPath id="f"><rect y="0" width="104.71" height="163.87" style="fill:none;"/></clipPath></defs><g id="c"><g id="d"><g style="clip-path:url(#e);"><g style="clip-path:url(#f);"><path d="m14.59,149.01c-1.45-2.18-2.89-4.36-4.34-6.55-.35-.75-.74-1.48-.96-2.28-.03-.07-.08-.11-.15-.14-.63-1.65-.85-3.39-1.09-5.12-.16-1.11-.31-2.24-.34-3.37,0-.07-.02-.14-.03-.22-.05-.05-.07-.1-.09-.16-.01-.06,0-.12.02-.18,0,0,0-.09,0-.09,0-.14,0-.28,0-.42-.29-.35-.29-.82-.48-1.21-.06-.16-.14-.31-.15-.48,0-.28-.06-.57-.05-.85.15-1.08.29-2.16-.13-3.21-.03-.17-.03-.35-.04-.52,0-.46,0-.92.08-1.38.06-.16.14-.31.19-.47.2-.61-.12-1.21-.03-1.82,0-.17,0-.34,0-.51-.03-.28-.02-.57,0-.85.05-.4-.03-.79.01-1.19.22-.85.3-1.71.22-2.58,0-.16.04-.32.08-.48.05-.32.05-.64.05-.96,0-.38,0-.77.03-1.15.28-1.16.25-2.32.14-3.5-.11-.79-.11-1.59-.41-2.35-.08-.22-.05-.46-.1-.69-.06-.33-.09-.67-.12-1-.19-.81-.17-1.65-.43-2.44-.04-.16-.06-.31-.05-.47-.02-.15-.04-.3-.05-.45-.03-.2-.06-.4-.1-.6-.03-.1-.03-.21-.03-.31.11-.73-.31-1.36-.42-2.05-.05-.1-.08-.2-.1-.3.15-.96-.2-1.74-.87-2.4-.34-1.24-.67-2.48-1.15-3.67.15-.62-.36-1.39.4-1.88.23-.07.44,0,.66.07.67.35,1.2.86,1.72,1.38.08.07.15.14.23.21.08.06.15.14.21.22.17.42.5.72.8,1.04.58,1.09,1.74,1.25,2.72,1.7.1.02.2.05.3.07.1.04.18.1.26.17.03.04.06.08.1.12.33.73.75,1.42,1.21,2.08.22.9.74,1.6,1.43,2.19.06.08.11.16.14.26.11.56.54.94.81,1.41.06.19.17.36.26.53.32.84.8,1.59,1.33,2.3.03.1.05.2.04.31,0,.16.02.31.06.47.05.21.11.42.13.64.38,1.23.27,2.55.72,3.76.29.44.35.95.45,1.45-.03.41.12.78.31,1.13.04.23.06.45.05.68-.25.98-.12,1.92.35,2.8.19.64.95.59,1.28,1.05.9.46.78-.41.86-.76.22-.91.09-1.88.36-2.79,0-.2.02-.39.04-.59,0-.15.01-.29,0-.44-.02-.19-.01-.38,0-.57.02-.19.03-.37.02-.56,0-.09,0-.18-.01-.28,0-.14,0-.27,0-.41,0-.14-.02-.27-.01-.41.02-.23.02-.46.02-.68,0-.09.02-.18.05-.26.06-.16.1-.32.12-.48,0-.12,0-.24-.02-.36-.04-.12-.07-.25-.09-.38-.06-.24-.07-.47-.06-.71,0-.2.01-.4,0-.61-.02-.16-.05-.31-.06-.47-.28-1.95-1.05-3.75-1.79-5.54-.25-.6-.35-1.25-.63-1.83-.53-1.11-1.06-2.2-1.93-3.11-1.35-1.41-2.07-3.22-2.82-4.97-1.42-3.33-3-6.57-4.81-9.7-.17-.72-.5-1.37-.97-1.94-.08-.06-.14-.14-.2-.21-.11-.15-.2-.32-.27-.5-.04-.08-.07-.17-.09-.26-.06-.21-.19-.38-.3-.56-.06-.07-.1-.15-.14-.23-.13-.24-.29-.46-.41-.7-1.31-2.53-2.46-5.14-3.62-7.74-.05-.13-.1-.27-.16-.4-.05-.08-.1-.16-.15-.25-.1-.18-.15-.37-.2-.57-1.02-2.13-1.61-4.41-2.26-6.66-.03-.11-.04-.22-.05-.33,0-.17-.02-.33-.03-.5-.04-.33-.04-.67-.05-1-.09-1.11.3-2.14.47-3.21.5-.88.84-1.82,1.18-2.77.03-.1.06-.2.08-.3.12-.29.23-.58.26-.89.6-1.99,1.86-3.55,3.2-5.08,2.24-2.56,4.48-5.1,6.96-7.43.55-.52,1.15-.99,1.74-1.46.44-.35.94-.56,1.49-.18.55.78.05,1.59.06,2.39.04.34.08.68.09,1.03.06.39-.13.77-.07,1.16.04.17.07.33.1.5-.28,1.83-.05,3.6.7,5.3.03.12.03.23.02.35-.04.17-.08.34-.16.49-.18.27-.37.59-.25.9.41.99.34,2.12.88,3.07,0,.1,0,.21,0,.32-.14.6.42.89.6,1.35.01.1.02.2.03.3.15,1.12,1.06,1.74,1.66,2.56.2.34.43.63.79.8.09.03.17.06.27.08.13.04.25.11.37.18.08.04.15.1.22.16.07.05.13.11.19.18.06.06.11.13.16.2.06.06.13.11.19.17.03.03.07.06.1.08.14.12.24.27.34.42,1.34,1.29,2.82,2.42,4.29,3.55.37.28.8.47,1.08.87.7,1.04,1.69,1.71,2.78,2.27.1.03.18.09.26.15.72.86,1.66,1.32,2.74,1.53.2.02.38.1.55.22.11.09.19.19.26.31.07.09.14.18.25.22.07,0,.14-.01.2-.06.04-.07.08-.13.1-.21.06-.23,0-.43-.08-.64-.08-.25-.28-.42-.4-.64-1.28-1.76-1.99-3.82-2.9-5.77-1-2.15-.98-4.47-1.19-6.76-.07-.46.03-.91.01-1.37,0-.19,0-.38.01-.57,0-.14,0-.27,0-.41,0-.14,0-.28,0-.42,0-.2.02-.39.03-.59,0-.16,0-.32.02-.47.02-.11.04-.22.08-.32.81-3.79,1.73-7.56,2.85-11.27.03-.22.06-.43.12-.64.04-.1.08-.2.12-.29.07-.14.13-.28.21-.41.2-.29.41-.57.5-.92.46-1.05.97-2.08,1.55-3.07.27-.27.53-.55.56-.97,2.26-3.5,4.3-7.13,6.18-10.85.07-.07.14-.14.2-.21.14-.13.25-.29.37-.44.07-.07.14-.13.2-.2.09-.11.18-.23.26-.35.19-.63.78-.97,1.08-1.53.19-.19.39-.38.45-.67.04-.18.15-.32.23-.48.05-.12.13-.23.2-.34.07-.11.14-.22.18-.34.06-.17.12-.34.23-.49.11-.15.19-.32.28-.48.17-.29.33-.58.43-.9.64-1.71,2.14-2.88,2.79-4.6.5-1.32,1.07-2.61,1.37-3.98.42-1.87,1.02-3.68,1.56-5.51.08-.32.1-.66.24-.97.09-.22.21-.41.4-.56.1-.06.21-.09.33-.09.38.06.55.32.61.66.33,1.66,1.26,3.06,2.08,4.49.59,1.04,1.03,2.14,1.5,3.22.53,1.2,1.15,2.32,1.89,3.39.22.46.34.98.73,1.35.37.55.53,1.2.9,1.75.3.45.36,1.02.68,1.46.1.27.24.51.38.76.04.12.06.25.07.37.03.12.06.23.1.35.09.33.23.63.43.89.08.12.14.24.19.37.03.09.04.17.04.26,0,.23.15.39.28.56.04.08.08.16.11.24.05.12.11.24.14.38,0,.09.01.18.01.27.02.09.03.18.04.27.01.09.03.18.04.28.06.64.49,1.13.7,1.71.08.35.23.67.31,1.02-.09.51.3.87.4,1.33.42,1.19.48,2.47.92,3.66.06.1.09.22.1.33.06.42.4.76.37,1.2.07,1.65.14,3.29.23,4.94.06,1.05.03,2.1.03,3.15,0,.13,0,.25.02.38-.25,1.3-.39,2.61-.32,3.93.07,1.57-.2,3.15.11,4.72-.01.18-.02.36-.04.53-.04.22-.08.45-.07.68-.29.98-.39,2-.68,2.97-.37.87-.73,1.75-.81,2.7-.06.19-.14.37-.2.56-.12.28-.2.56-.21.87,0,.11-.01.21-.05.3-.36.57-.34,1.2-.27,1.84-.07.15-.14.3-.18.46-.31.86-.26,1.79-.56,2.64-.26,1.2-.35,2.4-.16,3.62.06.41.2.75.45,1.06.08.19.14.39.26.56.13.26.3.5.55.67.17.17.41.26.59.41.39.42.65.94,1.09,1.32.15.11.28.25.4.4.07.07.12.15.16.23.05.08.09.16.12.25.04.09.06.18.07.27.05.23.21.41.31.61.41.71.79,1.46,1.72,1.63.91,1.17,2.4,1.82,2.95,3.3.03.29.08.55.22.82.53,1,.8,2.06.6,3.19-.06.34,0,.64.15.93.09.16.2.31.38.39.09.03.18.07.27.11.13.07.24.16.34.28.12.15.2.32.27.5.08.18.23.21.4.15,1.68-2.37,3.14-4.81,3.39-7.81.07-.93.39-1.82.52-2.75.07-.23.09-.47.1-.71,0-.14,0-.28,0-.42,0-.24,0-.48,0-.72,0-.31.01-.62.05-.93.4-.71.26-1.42,0-2.14-.02-.15-.02-.31-.02-.46.01-.38.03-.77.02-1.15,0-.14.02-.28.02-.42,0-.09,0-.18-.01-.28,0-.14.01-.28.02-.42,0-.14,0-.29,0-.43,0-.1,0-.2.01-.31,0-.22-.02-.43,0-.65.02-.56.28-1.01.66-1.41.23-.12.46-.11.69-.02.21.09.39.23.55.39.08.07.14.15.2.24.22.55.71.7,1.22.84.09.02.17.05.25.09.12.06.22.14.32.22.07.05.13.1.2.15.06.05.13.11.19.16.03.03.07.05.1.08.11.08.22.15.33.22.52.48,1.11.86,1.62,1.36.07.06.13.12.2.18.06.06.13.12.19.18.06.06.12.12.18.17.03.03.06.06.09.08.06.05.11.11.17.17.08.08.17.16.26.24.06.05.13.09.19.14.07.04.14.08.21.13.07.05.13.1.19.15.03.03.06.05.1.08.07.05.14.1.21.15.04.03.07.06.11.08.15.11.25.27.37.42,1.01.95,2.09,1.83,3.02,2.86.29.32.61.6.72,1.04.19,1.25,1.03,1.97,2.08,2.51.08.08.14.18.18.28.08.34.26.63.38.95,1.32,2.71,1.34,5.7,1.82,8.59.49,2.96-.15,5.82-.54,8.71,0,.11-.02.23-.03.34-.35,1.5-1.09,2.77-2.02,4.01-.62.83-1.13,1.84-1.33,2.92-.79,1.21-1.91,2.17-2.63,3.44-.63.38-.78,1.01-.84,1.67-.15,1.04-1.22,1.65-1.28,2.73.02.52-.41.92-.36,1.45-.08.59-.53,1.06-.56,1.67-.46,1.55-.56,3.15-.67,4.76-.06.79-.47,1.57.22,2.28,0,.32.16.63.08.95-.02.15-.03.3-.02.44.04.24.16.45.2.69.04.09.06.18.07.28-.17.47-.05.9.21,1.3.01.09.03.19.04.28.21.76.18,1.65,1.14,1.96.13.07-.03,0,.1.03.53.13.73,1.04,1.25.81.57-.24.43-1.06.65-1.61.15-.36.15-.76.2-1.15.02-.15.08-.29.14-.42.06-.13.09-.27.15-.41.08-.23.14-.46.24-.68.25-.58.26-1.23.5-1.82.85-1.75,1.67-3.54,2.72-5.15,1.23-1.89,2.33-3.92,4.13-5.38.36-.29.49-.71.81-1.01.99-1.08,2.06-2.07,3.3-2.87.92-.11,1.68-.57,2.41-1.12.41-.2.79-.07,1.15.15.1.05.19.12.27.21.31.65-.24,1.15-.31,1.74-.13.23-.21.48-.42.65-.4.23-.65.56-.74,1.01-.03.09-.06.17-.09.26-.03.09-.07.17-.12.24-.03.04-.06.07-.08.11-.1.15-.19.31-.28.47-.12.14-.21.29-.3.45-.21.31-.32.67-.54.98-.1.17-.17.35-.26.52-.45,1.14-1.19,2.15-1.56,3.33-.04.09-.09.18-.13.27-.18.3-.2.67-.4.95-.12.76-.76,1.33-.77,2.12-.07.51-.63.84-.49,1.42,0,.11,0,.21,0,.32-.09.58.03,1.21-.35,1.73-.24.73-.37,1.48-.42,2.25-.25.42-.41.86-.38,1.36.04.42.11.85-.12,1.25-.59.88-.46,2-.96,2.91-.02.6-.49,1.08-.47,1.69,0,.15-.04.29-.13.41-.21.21-.36.44-.42.73.02.61-.3,1.14-.37,1.73-.07.44-.3.83-.4,1.26-.39.99-.68,2.01-1.01,3.02-.02.15-.04.31-.05.46,0,.1-.02.21-.04.31-.51.68-.56,1.44-.41,2.24,0,.17-.06.32-.09.48-.32.8-.58,1.61-.49,2.49-.02.1-.03.2-.05.31-.02.44-.29.86-.13,1.32.03.1.05.19.05.29-.05.43-.38.79-.32,1.25,0,.1,0,.19,0,.29-.04.19-.04.39-.15.57-.3.48-.24,1.07-.51,1.56-.23.62-.57,1.18-.92,1.73-.08.13-.17.25-.26.37-.67.75-1,1.72-1.69,2.46-.14.2-.33.35-.48.54-.2.19-.4.39-.51.66-.04.09-.1.16-.17.23-.38.3-.68.66-.87,1.1-.32.51-.89.8-1.19,1.33-.88.83-1.93,1.45-2.86,2.18-1.03.8-2.03,1.61-3.16,2.24-.63.35-1.36.44-1.99.77-4.23.79-8.46,1.58-12.7,2.37-.96.18-1.92.32-2.89.48-1.08.16-2.15.14-3.21-.13-.25-.02-.51,0-.76-.04-.12-.01-.24-.03-.36-.04-1.25-.17-2.5-.25-3.75-.46-.72-.07-1.44-.14-2.15-.21-.86-.23-1.75-.06-2.63-.16-.21-.01-.41-.02-.62-.03-.27.14-.58,0-.86.09-.23-.03-.46-.05-.69-.08-.58-.16-1.18-.1-1.77-.2-.12-.01-.25-.02-.37-.03-.73-.25-1.5-.06-2.24-.19-1.81-.24-3.62-.47-5.44-.71-.46-.58-1.21.04-1.71-.41h-.04c-.61-.34-1.28-.48-1.97-.5-2.06-.69-4.03-1.59-5.94-2.61-.6-.32-1.13-.76-1.65-1.2l-.04-.03c-1.19-.61-2.34-1.29-3.4-2.11-.07-.04-.14-.08-.21-.12-.45-.34-.92-.67-1.34-1.05h0c-.06-.09-.1-.22-.25-.12l-.06-.03c-.66-.57-1.39-1.05-2.1-1.56h-.01c-.5-.42-.95-.91-1.55-1.2-.05-.01-.08-.04-.1-.08.06-.04.1-.09.08-.13-.05-.11-.13-.07-.21-.02l-.05-.07c-.11-.29-.36-.47-.58-.66h-.01c0-.16-.09-.22-.24-.2-.06-.08-.11-.16-.17-.24-.03-.13-.11-.22-.25-.22" style="fill:#f37d21;"/></g></g></g></g></svg>