<?xml version="1.0" encoding="UTF-8"?><svg id="b" xmlns="http://www.w3.org/2000/svg" xmlns:xlink="http://www.w3.org/1999/xlink" viewBox="0 0 104.71 164.45"><defs><clipPath id="e"><rect y="0" width="104.71" height="164.45" style="fill:none;"/></clipPath><clipPath id="f"><rect y="0" width="104.71" height="164.45" style="fill:none;"/></clipPath></defs><g id="c"><g id="d"><g style="clip-path:url(#e);"><g style="clip-path:url(#f);"><path d="m62.15,164.37c-.56,0-1.13.01-1.69.02-1.53.04-3.05.14-4.58-.06h0c-.64-.21-1.32-.03-1.97-.18-.78-.09-1.56-.18-2.33-.27-.43-.23-.91-.01-1.35-.14-.07-.01-.13-.03-.19-.06-1.22-.2-2.44-.17-3.66-.02-3.52-.57-7.05-1.08-10.55-1.75-2.39-.46-4.74-1.15-7.1-1.73-.18-.24-.56-.19-.71-.47-.08-.05-.17-.1-.25-.14h-.04c-.46-.42-1.05-.59-1.6-.85-1.63-1.09-3.28-2.17-4.89-3.29-3.93-2.74-7.77-5.58-9.92-10.07-.57-1.19-1.21-2.35-1.82-3.52-.1-.25-.24-.49-.28-.76-.06-.05-.12-.11-.19-.16-.24-1.45-.81-2.84-.91-4.32-.11-1.21-.22-2.43-.33-3.64-.04-.09-.05-.19-.05-.28,0-.12-.01-.24-.02-.37.02-.1,0-.18-.05-.27-.07-.21-.13-.43-.2-.64-.29-.21-.46-.48-.46-.85-.03-.22-.1-.42-.19-.63-.04-.16-.05-.32-.02-.48.03-.15.09-.28.18-.4.05-.11.11-.21.1-.34-.07-.2-.14-.4-.23-.59-.05-.14-.07-.28-.09-.42-.02-.15-.02-.3-.02-.45,0-.26.03-.52.04-.78,0-.16-.01-.32-.02-.49,0-.45-.02-.91.04-1.36.15-1.13.14-2.26.21-3.39,0-.12-.01-.24-.02-.36-.06-.65.1-1.28.14-1.92.08-.79.07-1.57.08-2.36.22-1.84.33-3.69,0-5.53-.06-.35.06-.71.01-1.07-.03-.25-.06-.49-.12-.74-.04-.18-.06-.37-.09-.55-.09-.36.09-.72.01-1.08-.03-.13-.04-.26-.05-.39,0-.09.02-.17.03-.25,0-.04,0-.08,0-.13,0-.04,0-.08-.02-.13-.05-.13-.07-.26-.09-.39-.22-.59-.11-1.22-.23-1.83,0-.09-.01-.18-.01-.26,0-.08,0-.17,0-.25,0-.12,0-.25,0-.37,0-.08,0-.16,0-.24,0-.16-.02-.32-.06-.48-.05-.16-.13-.3-.24-.43-.06-.07-.1-.15-.14-.23-.05-.08-.08-.17-.1-.26-.04-.09-.05-.18-.07-.27-.03-.09-.04-.18-.04-.27,0-.09,0-.18-.01-.27-.07-.27-.1-.55-.18-.82-.68-2.09-1.14-4.25-1.9-6.32-.1-.45-.18-.9-.47-1.28-.06-.1-.1-.2-.12-.31-.03-.11-.03-.23-.01-.34.06-.22.15-.42.32-.58.4-.22.66.04.91.29.32.33.67.61,1.13.72,1.54,1.26,3.14,2.45,4.84,3.49.69.42,1.09,1.1,1.59,1.7.15.47.4.91.43,1.42.07.81.59,1.32,1.19,1.78.06.08.1.17.13.27.11.54.6.88.75,1.4.07.18.17.34.29.49.16.24.35.45.54.66.05.08.09.17.11.27.07.51.47.88.58,1.37.03.1.03.2.03.31.18,1.28.67,2.5.86,3.78.03.1.05.2.06.3.03.35.1.69.33.97.35.53-.09,1.36.67,1.73.08.06.14.15.16.25-.29,1.22-.07,2.44.02,3.66.11.2.1.46.26.64.34.25.7.48.98.81.54.43.85.22.94-.39.15-.94.29-1.88.36-2.83.03-.47.02-.95.03-1.42,0-1.31.31-2.62.1-3.93-.02-.11-.04-.21-.05-.32-.01-.2,0-.41-.03-.61-.03-.09-.05-.19-.08-.28-.01-.05-.02-.09-.03-.14-.02-.09-.03-.19-.03-.28-.01-.09,0-.18,0-.28,0-.05,0-.09,0-.14,0-.05,0-.09.01-.14.03-.14.04-.28.04-.43-1.21-3.64-1.93-7.47-4.69-10.42-1.02-1.09-1.5-2.55-2.08-3.89-1.79-4.13-3.76-8.16-6.21-11.94-1.04-1.6-1.6-3.45-2.48-5.14-1.58-3.02-2.58-6.29-4.06-9.35-.55-1.15-.53-2.53-1.07-3.72-.07-.2-.1-.4-.11-.61-.01-.24,0-.49,0-.74,0-.14,0-.28,0-.42,0-.14,0-.28,0-.42,0-.2,0-.4,0-.6.13-1.06.31-2.11.54-3.15.17-.3.34-.61.46-.93.09-.18.18-.36.29-.52.21-.22.33-.48.4-.77.15-.37.31-.74.34-1.15.95-2.52,2.83-4.39,4.54-6.37,2.08-2.42,4.26-4.76,6.8-6.74.51-.39,1.16-.56,1.59-1.06.67-.21.95.11.99.74.01.27-.06.52-.18.76-.04.09-.08.18-.12.27-.08.36-.35.67-.31,1.07.01.14.03.27.07.41.04.14.09.27.11.42.02.1.03.2.03.3,0,.21-.02.42-.03.63,0,.11-.02.22-.05.33-.25.61-.32,1.22-.15,1.87.31,1.16.35,2.36.43,3.54.02.33.15.62.29.9.03.11.05.21.04.32-.12.48-.01.92.28,1.32.03.1.05.2.04.3,0,.2-.05.4-.02.61.34.58.39,1.23.43,1.88-.06.55.35.9.55,1.33.04.09.05.19.06.29.01.84.43,1.46,1.09,1.94.09.03.17.09.25.15.2.2.39.41.6.6.67.79,1.42,1.51,2.16,2.23.1.09.21.19.32.27.08.05.15.1.23.15.07.05.14.11.2.18.03.03.06.07.09.1.06.06.11.13.16.2.06.06.1.13.15.19.11.12.25.19.4.25.09.03.17.08.24.13.12.08.24.17.34.27,1.36,1.46,3.21,2.27,4.7,3.55,1.34,1.15,2.76,2.15,4.39,2.85.38.16.58.53.89.77.33.12.57.1.45-.35-.09-.34-.46-.51-.54-.86-1.16-1.74-1.93-3.67-2.79-5.56-.76-1.68-1.01-3.42-1.13-5.22-.04-.61.01-1.22-.17-1.82-.07-.23-.1-.46-.07-.7.03-.17.06-.34.06-.52.05-.58,0-1.16.05-1.73.64-4.78,2.12-9.36,3.5-13.95,1.66-3.54,3.89-6.75,5.83-10.13,1.28-2.23,2.35-4.59,3.77-6.75.12-.16.21-.34.31-.51.05-.08.1-.16.16-.24.06-.08.13-.14.21-.19.08-.05.16-.1.24-.15.11-.08.21-.18.31-.28.22-.21.23-.53.43-.75,1.45-2.8,3.19-5.45,4.62-8.25.59-1.16.96-2.48,1.13-3.81.21-1.66,1.06-3.13,1.47-4.73.03-.15.06-.3.08-.46.02-.2.02-.41,0-.61,0-.26-.01-.51.05-.76.07-.19.15-.37.29-.52.31-.09.31-.27.14-.49,0-.16.06-.3.19-.4.15-.09.3-.11.47-.07.25.12.43.32.62.51.87,3.42,2.85,6.34,4.29,9.51.18.39.41.76.67,1.11.1.13.18.27.21.43.03.15.05.31.04.46-.05.24-.14.47-.09.72.03.19.11.37.16.55.45,1.23,1.15,2.33,1.76,3.48.66,1.74,1.47,3.42,2.04,5.2.17.55.6.95,1.04,1.31.05.09.08.19.1.3-.59,1.23.4,2.23.49,3.36.27.69.2,1.48.62,2.13.1.17.25.3.37.47.04.09.07.19.08.29.03.31.09.61.22.89.27,1.49.56,2.98.34,4.52-.17,1.53.08,3.07,0,4.6.13.58.12,1.17.09,1.75,0,.22-.04.44-.07.65-.23.8.08,1.61-.03,2.42-.01.41.03.81,0,1.22-.01.22-.08.42-.12.63-.26.82-.13,1.66-.07,2.49-.02.11-.05.21-.07.32.02.38-.17.72-.17,1.09.01.16-.02.3-.07.45.02.35-.09.68-.23.99-.03.23-.16.45-.07.69.03.09.04.19.04.28-.02.09-.04.19-.08.28-.03.29-.12.56-.22.83-.04.15-.14.26-.22.39-.41.99-.82,1.98-.89,3.07.04.16.03.32-.03.48-.14.24-.16.51-.22.78-.04,1.07-.5,2.05-.6,3.11-.04.46-.11.9.03,1.35.02.22-.05.44-.04.66,0,.16-.02.32-.08.47-.07.14-.14.28-.19.42-.3.97-.13,1.87.34,2.74.37.48.96.67,1.4,1.06.67,1.4,1.88,2.39,2.79,3.61.06.07.13.14.19.21.07.06.12.13.18.21.12.18.28.32.45.45.08.06.15.12.22.19.07.07.14.14.2.22.4.75,1.07,1.26,1.65,1.85.48.49.94,1,1.15,1.67.7,1.43,1.05,2.94,1.05,4.52.06.31.26.52.48.72,1.19.92,1.32.85,2.1-.4,1.71-2.75,2.42-5.8,2.88-8.94.04-.13.06-.26.08-.4,0-.14,0-.28,0-.43,0-.36.01-.73.04-1.09,0-.22,0-.45,0-.67-.07-.65.17-1.28.09-1.93-.08-.66-.16-1.32-.13-1.99.03-1.1.23-2.19.08-3.3-.14-1.09.28-1.36,1.39-1.01.24.17.51.29.71.52.08.07.15.16.21.25.15.46.5.67.96.75.1.03.19.07.28.12.22.12.41.29.6.47,2.53,2.2,5.08,4.38,7.47,6.74.33.32.71.61.84,1.09.33,1.06.84,1.97,1.97,2.38.36.38.77.74.83,1.31.54,1.59.81,3.25,1.14,4.89.68,3.45.99,6.91.26,10.39-.09.42-.13.85-.13,1.28,0,.12,0,.23-.01.35,0,.23-.07.45-.12.67-.07.48-.2.96-.31,1.43-.04.15-.08.31-.12.46-1.11,1.64-2.33,3.21-2.99,5.11-.38.91-1.12,1.57-1.66,2.38-1.83,2.75-3.25,5.67-3.99,8.9-.55,2.48-1.03,4.96-.43,7.5.03.1.07.2.1.3.07.19.22.35.25.56.03.14.03.28.03.42,0,.13,0,.25.01.38.02.08.03.17.04.25.04.3.17.59.14.9,0,.09.02.19.03.28.31.84.2,1.96,1.47,2.14,1.1.88,1.09.88,1.57-.54.36-1.06.59-2.16.79-3.25.15-.8.4-1.52.83-2.19.1-.89.61-1.64,1.04-2.35,1.49-2.45,2.94-4.93,4.83-7.11.37-.43,1-.62,1.15-1.25.07-.14.17-.26.27-.39.94-.9,1.98-1.66,3.05-2.39,1.09-.42,2.13-.97,3.23-1.35.17-.05.33-.03.5,0,1.07.31,1.2.98.38,2.03-.33.16-.6.39-.78.71-.33.29-.49.7-.77,1.03-.06.69-1.05,1.1-.57,1.95.01.1,0,.2,0,.3-.02.1-.07.19-.13.27-.24.24-.67.22-.8.6-.69.84-1,1.9-1.55,2.82-.03.1-.05.19-.08.29-.04.15-.15.26-.2.41-.45,1.08-.9,2.17-1.12,3.33-.38.44-.49.99-.56,1.55.12.76-.17,1.47-.39,2.15-.14.45-.18.89-.23,1.34-.57,1.24-.8,2.56-.95,3.9-.08.72-.46,1.34-.6,2.04-.12.76-.65,1.36-.79,2.11-.03.1-.05.21-.07.31-.37,1.8-.86,3.57-1.57,5.27-.08.25-.17.5-.22.77-.28.87-.53,1.75-.64,2.66,0,.28-.06.55-.13.82-.12.33-.1.66-.02.99-.47,1-.49,2.1-.69,3.16-.08.48.06.92.24,1.36-.59.93-.79,2.02-1.15,3.04-.38.92-1.01,1.68-1.54,2.5-.83,1.44-1.93,2.68-2.91,4.02-.55.75-1.47,1.15-2,1.94-.06.08-.13.16-.2.23-.15.14-.27.31-.37.49-1.48,1.43-3.2,2.52-4.98,3.52-.34.19-.68.41-1.1.2-3,.91-5.99,1.82-8.99,2.71-.44.13-.92.11-1.39.16-1.59.16-3.19.11-4.78.02" style="fill:#ef5f22;"/></g></g></g></g></svg>