<?xml version="1.0" encoding="UTF-8"?><svg id="b" xmlns="http://www.w3.org/2000/svg" xmlns:xlink="http://www.w3.org/1999/xlink" viewBox="0 0 72.22 116.92"><defs><clipPath id="e"><rect y="0" width="72.22" height="116.92" style="fill:none;"/></clipPath><clipPath id="f"><rect y="0" width="72.22" height="116.92" style="fill:none;"/></clipPath></defs><g id="c"><g id="d"><g style="clip-path:url(#e);"><g style="clip-path:url(#f);"><path d="m26.74,26.12c-.77-5.01-1.52-10.02-2.32-15.03-.52-3.27-1.16-6.52-1.68-9.79-.06-.4.25-.86.4-1.3.43.17,1.07.21,1.26.52.96,1.64,1.88,3.32,2.66,5.05,1.04,2.33,1.84,4.77,2.92,7.08,3.51,7.51,4.73,15.6,6,23.67.66,4.16,1.21,8.33,1.81,12.5.09,1.04.05,2.08.02,3.13.02.33.04.66.07.98.25-.2.54-.36.73-.6,2.68-3.22,4.18-6.76,3.17-11.06-.11-.45.21-1,.32-1.51.45.31,1.15.52,1.32.94.92,2.33,1.72,4.7,2.56,7.06.16.66.02,1.33.08,1.99-.29,1.67-.62,3.33-.83,5.01-.07.57.03,1.56.33,1.69.63.27,1.63.37,2.17.04,3.91-2.43,7.92-4.76,11-8.29,1.18-1.35,2.26-2.79,3.43-4.16.22-.26.64-.51.95-.49.21.01.5.49.55.79.29,1.7.51,3.41.76,5.12.02,1.11.07,2.23-.03,3.34-.33,2.4-1.77,4.2-3.22,6.01-1.46,1.83-3,3.61-4.26,5.57-1.94,3.02-2.88,6.4-2.99,10-.17.6-.04,1.21-.07,1.82,0,.21,0,.46.33.39,2.59-2.47,4.82-5.16,5.61-8.79.08-.38.6-.66.91-.99.28.41.81.84.78,1.22-.25,3.19-.56,6.37-.94,9.55-.59,5-1.24,9.98-1.86,14.98-.18.51,0,1.05-.11,1.57.04,1.97,0,3.95.16,5.92.13,1.49,1.09,1.98,2.34,1.13,1.53-1.05,2.93-2.3,4.28-3.58,1.77-1.68,3.44-3.48,5.16-5.22.61-.62,1.2-.85,1.68.14.05.75.06,1.51,0,2.26-.15,8.04-4.75,12.97-11.5,16.37-2.72,1.37-5.58,2.32-8.65,2.48-.5.12-1.03-.08-1.53.12-.37,0-.75,0-1.12,0-.65-.19-1.32-.02-1.97-.12-1.92-.3-3.84-.55-5.74-.91-4.23-.8-7.76.7-11.02,3.21-.58.44-1.32.67-1.99.99-.3-.03-.6-.02-.9-.01-.33-.36-.68-.71-.99-1.08-.34-.41-.56-.95-.97-1.24-1.68-1.17-3.35-2.37-5.12-3.37-4.09-2.29-7.47-5.27-10.05-9.25-2.5-3.86-5.29-7.52-7.93-11.29-.18-.25-.26-.69-.17-.98.06-.19.53-.39.78-.36,4.49.54,8.99,1.07,13.47,1.71,1.08.15,2.14.6,3.16,1.04.64.27.72.1.7-.48-.02-.97,0-1.94.01-2.92.18-.44.06-.89.08-1.34,0-1.65,0-3.3.01-4.94,0-.23.05-.47-.08-.69-.65-6.47-2.48-12.64-4.9-18.63-2.24-5.54-5.15-10.65-9.21-15.14-2.45-2.71-4.33-5.92-6.41-8.95-.22-.32-.08-.9-.1-1.36.46,0,1.06-.19,1.37.03,2.83,2.03,6.12,2.9,9.42,3.59,4.6.96,8.43,3.22,11.88,6.28.21.18.46.32.69.49.09-.27.18-.54.25-.81.83-3.24,1.68-6.48,2.49-9.73.2-.8.24-1.64.36-2.46.19-.28.06-.6.11-.9.05-.84.11-1.68.16-2.52.08-.38.03-.77.04-1.15,0-.99,0-1.98,0-2.98-.02-.45.06-.91-.05-1.36" style="fill:#ef5f22;"/></g></g></g></g></svg>