<?xml version="1.0" encoding="UTF-8"?><svg id="b" xmlns="http://www.w3.org/2000/svg" viewBox="0 0 210.66 171.61" fill="currentColor"><g id="c"><g><path d="m39.37,36.69c12.89-.5,24.57,2.71,34.42,11.32,9.6,8.38,10.11,18.82,1.57,28.4-6.43,7.22-14.7,11.61-23.38,15.35-3.92,1.69-7.96,3.08-11.94,4.62-.33.13-.63.34-.94.51.36.1.71.22,1.08.29,9.06,1.57,17.6,4.33,24.54,10.76,8.35,7.72,14.45,21.03,9.92,32.91-2.26,5.93-6.47,10.01-11.4,13.53-11.51,8.24-24.59,12.49-38.45,14.3-5.23.68-10.59.27-15.89.46-.56.02-1.11.67-1.64,1.07-.6.45-1.16.94-1.74,1.41-.49-.61-1.36-1.19-1.4-1.83-.55-7.7-1.11-15.4-1.42-23.11-.67-16.53-1.3-33.06-1.76-49.6C.51,81.92.39,66.76,0,51.61c-.06-2.38.87-3.88,2.59-5.2,5.43-4.17,11.76-6.31,18.31-7.62,6.08-1.22,12.29-1.85,18.44-2.73l.03.63Z"/><path d="m3.27,57.35c.1,0,.2,0,.31,0,0,2.11-.04,4.22,0,6.33.41,18.89.83,37.79,1.26,56.68.1,4.27.17,8.54.41,12.8.57,10.05,1.32,20.1,1.8,30.15.1,2.05.81,2.53,2.65,2.71,7.45.73,14.73-.23,21.98-1.77,11.75-2.5,22.64-6.88,32.15-14.39,6.42-5.06,9.96-11.64,8.92-19.8-1.54-12.14-8.4-20.78-19.46-25.78-10.35-4.68-21.13-5.8-32.3-2.85-3.96,1.05-8.13,1.35-12.22,1.85-1.42.17-3.39.34-3.51-1.7-.11-1.98,1.81-1.62,3.13-1.83,6.95-1.11,14-1.8,20.82-3.47,9.93-2.43,19.5-6.1,28.61-10.83,6.4-3.32,12.35-7.24,16.65-13.2,5.4-7.48,4.85-14.53-1.79-20.87-5.27-5.03-11.51-8.48-18.62-10.14-8.42-1.96-16.95-1.96-25.45-.72-8.25,1.2-16.33,3.12-23.37,7.93-.78.53-1.44,1.66-1.59,2.6-.32,2.07-.29,4.19-.39,6.3Z" style="fill:#fec833;"/><path d="m181.52,130.01c0,3.36.03,6.72-.01,10.07-.01,1.2-.25,2.5-1.83,2.38-1.66-.13-1.94-1.45-1.9-2.86.17-6.22.48-12.45.45-18.67-.04-7.3-.57-14.58-2.83-21.6-.48-1.5-.98-3.02-1.7-4.42-1.83-3.56-4.84-4.81-8.68-3.64-6.3,1.92-8.74,7.07-10.43,12.76-1.69,5.7-1.02,11.49-.51,17.28.5,5.68.91,11.37,1.19,17.07.03.67-.93,1.4-1.44,2.1-.6-.57-1.66-1.08-1.73-1.71-1.05-8.78-3.1-17.44-2.25-26.44.42-4.39-.36-8.89-.58-13.34-.04-.77-.2-1.59.03-2.28.22-.67.86-1.2,1.32-1.78.58.52,1.35.95,1.69,1.6.36.7.33,1.6.46,2.42.44-.79.87-1.59,1.32-2.37,2.51-4.41,5.98-7.61,11.11-8.61,5.13-1,9.62.8,11.41,5.74,2.02,5.58,3.48,11.48,4.28,17.36.85,6.24.63,12.63.87,18.95-.09,0-.17,0-.26,0Z"/><path d="m205.3,67.87c-.53-12.69-1.14-25.38-1.54-38.07-.17-5.22.2-10.45.17-15.68-.02-3.69-.3-7.37-.46-11.05-.02-.38-.18-.86-.01-1.13.44-.7,1.02-1.3,1.55-1.94.55.62,1.54,1.21,1.57,1.86.29,5.31.43,10.62.57,15.93.19,6.85.32,13.69.52,20.54.06,2.15.39,4.31.39,6.46.03,15.59-.04,31.18,0,46.77.03,11.51.16,23.01.25,34.52.01,1.43-.29,2.73-2.04,2.67-1.87-.06-1.49-1.41-1.47-2.73.08-4.84-.01-9.69-.02-14.53,0-6.85,0-13.71,0-20.57,0-7.68,0-15.35,0-23.03.17,0,.35-.01.52-.02Z"/><path d="m106.74,118.92c.53,4.95.83,8.37,1.27,11.77.77,5.83,2.94,11.08,6.72,15.65.76.92,1.6,2.13.13,3.07-1.42.91-2.2-.31-2.83-1.33-1.74-2.8-3.43-5.64-5.14-8.46-.09-.16-.18-.32-.28-.48-.07.2-.15.4-.2.61-.39,1.88-.62,3.8-1.17,5.62-1.72,5.7-7.36,7.84-12.5,4.79-3.07-1.82-4.95-4.61-6.1-7.93-2.2-6.38-2.69-13.02-2.98-19.69-.22-4.98-.4-9.96-.58-14.94-.03-.76-.14-1.59.1-2.28.21-.58.84-1.32,1.35-1.37.48-.05,1.32.61,1.51,1.13.34.95.36,2.02.43,3.05.65,9.41,1.1,18.84,2.04,28.22.28,2.8,1.63,5.61,2.98,8.15.74,1.39,2.37,2.52,3.85,3.27,2.77,1.39,5.69.28,6.47-2.69.87-3.3,1.49-6.77,1.54-10.17.13-8.76-.13-17.53-.19-26.29-.01-1.67.04-3.38.36-5.01.14-.68,1.08-1.19,1.65-1.78.52.64,1.47,1.27,1.48,1.92.12,5.55.07,11.11.07,15.17Z"/><path d="m122.15,121.02c-.56-5.86-1.12-11.72-1.67-17.58-.05-.52-.18-1.12,0-1.56.26-.64.69-1.54,1.2-1.65.5-.11,1.17.66,1.81.96.28.13.86.21.95.08,4.09-6.16,10.12-7.8,17.03-7.24,2.14.18,3.27,1.84,3.63,3.75.13.7-.76,1.6-1.18,2.41-.63-.51-1.25-1.02-1.89-1.52-.72-.55-1.44-1.51-2.19-1.55-8.08-.38-14,4.56-14.4,11.62-.33,5.77-.05,11.47.89,17.18.93,5.67,1.55,11.4,2.16,17.11.08.73-.71,1.55-1.1,2.33-.76-.45-2.02-.75-2.2-1.37-.94-3.26-1.83-6.56-2.31-9.91-.62-4.31-.82-8.67-1.21-13.02.16-.01.32-.03.49-.04Z"/><path d="m201.35,144.76c0-3.72,2.02-6.5,4.46-6.41,1.7.06,3.02.63,2.83,2.75-.03.37.2.83.44,1.14,1.25,1.63,2.29,3.3.93,5.34-1.06,1.59-3.64,2.28-5.72,1.58-2.29-.77-2.8-2.67-2.94-4.41Z"/></g></g></svg>