<?xml version="1.0" encoding="UTF-8"?><svg id="b" xmlns="http://www.w3.org/2000/svg" viewBox="0 0 270.47 119.72" fill="currentColor"><g id="c"><g><path d="m0,65.5C.35,46.04,3.4,30.81,12.13,17.16,16.92,9.67,23.03,3.63,31.83.98c5.25-1.58,10.44-1.2,15.49.86.63.26,1.4.89,1.55,1.49,1.05,4.32,1.95,8.68,2.9,13.02.26,1.19.69,2.57-.94,2.99-1.62.42-2.15-.89-2.46-2.17-.56-2.33-1.02-4.69-1.62-7.01-.48-1.85-1.06-3.69-1.73-5.48-.13-.35-.84-.58-1.32-.7-7.72-1.96-14.41.26-20.36,5.18-7.38,6.1-11.92,14.14-14.94,23.02-6.81,20.03-6.98,40.12.38,60.07,2.55,6.92,6.32,13.14,11.95,18.07,9.33,8.18,21.11,8.21,30.36-.12,2.65-2.39,4.77-5.36,7.26-7.94.59-.61,1.69-.71,2.56-1.04.03.93.45,2.12.03,2.74-3.96,5.86-8.85,10.78-15.47,13.58-10.45,4.43-19.68,1.87-27.7-5.58-8.48-7.87-12.89-18.08-15.24-29.14-1.45-6.81-2.04-13.81-2.53-17.32Z"/><path d="m140.69,81.89c.7,6.86,1.4,13.01,1.9,19.17.07.9-.75,1.87-1.16,2.81-.81-.65-2.07-1.14-2.36-1.97-2.03-5.79-2.38-11.73-1.94-17.87.35-4.89-.2-9.84-.35-14.77-.02-.72-.32-1.51-.1-2.13.29-.81.96-1.48,1.47-2.22.66.82,1.54,1.55,1.91,2.48.33.82.07,1.87.1,2.82,0,.21.13.42.2.62.11-.2.24-.39.34-.59,1.07-2.14,1.92-4.43,3.24-6.4,3.72-5.53,9.87-5.53,13.81-.09,3.02,4.17,4.2,9.06,4.89,14,.97,7.03,1.54,14.11,2.37,21.15.16,1.36.9,2.65,1.1,4.02.11.72-.19,1.69-.65,2.26-.43.53-1.38,1-1.99.88-.5-.1-1.11-1.06-1.18-1.69-.74-6.77-1.17-13.58-2.11-20.32-.7-4.96-1.89-9.87-3.15-14.72-.43-1.64-1.56-3.19-2.67-4.55-1.98-2.43-4.82-2.56-6.78-.17-1.43,1.74-2.64,3.8-3.41,5.92-1.42,3.9-2.46,7.95-3.47,11.34Z"/><path d="m253.15,67.89c.67,7.34,1.27,14.69,2.07,22.01.11.99,1.21,1.84,1.73,2.82.31.58.71,1.47.48,1.88-.46.79-1.25,1.63-2.07,1.87-.48.14-1.7-.7-1.88-1.31-.88-2.93-1.97-5.9-2.15-8.9-.52-8.85-.72-17.72-.87-26.58-.03-1.97-.7-2.46-2.44-2.16-1.23.21-2.46.37-3.7.53-1.07.14-2.04.26-2.19,1.73-.03.36-1.37.98-1.46.89-.77-.84-1.61-1.74-1.97-2.79-.15-.43.74-1.67,1.34-1.82,3.01-.75,6.09-1.19,9.11-1.91.58-.14,1.4-.99,1.42-1.54.47-9.58.86-19.16,1.18-28.74.08-2.52-.3-5.06-.16-7.57.05-.91.89-2.42,1.57-2.54,1.62-.28,1.81,1.31,1.8,2.49-.03,5.08-.11,10.16-.27,15.24-.22,7.04-.55,14.09-.72,21.13-.01.51.87,1.44,1.41,1.5,3.52.39,7.06.63,10.6.82.62.03,1.26-.47,1.92-.63.76-.19,1.55-.28,2.32-.41.05.78.45,1.86.08,2.28-.74.83-1.88,1.83-2.87,1.83-3.92.02-7.85-.28-11.77-.55-1.48-.1-2.08.33-2.02,1.9.1,2.83.03,5.66.03,8.49-.18.01-.36.03-.54.04Z"/><path d="m178.61,84c-.33,5.01,2.11,8.31,6.45,10.26,2.88,1.29,5.9,2.27,8.89,3.28.32.11.88-.43,1.31-.69.8-.49,1.58-.99,2.37-1.49.26.81.85,1.69.72,2.43-.57,3.15-1.97,3.94-5.01,2.95-2.69-.88-5.39-1.75-8-2.82-7.96-3.24-10.85-8.2-9.76-16.74.87-6.79,2.95-13.2,6.59-19.02,1.15-1.85,2.65-3.53,4.23-5.04,2.05-1.96,4.17-1.95,6.54-.35,3.16,2.14,4.9,5.32,6.39,8.68,1.01,2.27,2.05,4.53,3.09,6.78.64,1.39-.04,2.55-1.81,2.8-5.03.71-10.07,1.34-15.09,2.06-.63.09-1.17.71-1.81.83-.99.19-2.02.09-3.02.25-.51.08-1.33.39-1.39.72-.34,1.68-.48,3.41-.69,5.12Z"/><path d="m182.73,74.21c4.93-.64,9.87-1.26,14.79-1.94.26-.04.72-.63.66-.75-1.87-3.69-3.47-7.58-5.82-10.93-1.77-2.53-3.39-2.39-5.14.24-2.32,3.47-4.09,7.31-6.05,11.02-.84,1.6-.61,2.62,1.56,2.37Z" style="fill:#fec833;"/><path d="m104.34,92.52c.2,2.61.44,5.57.64,8.53.09,1.29.64,3.01-1.28,3.27-1.89.25-1.99-1.51-2.11-2.8-.64-7.06-1.2-14.14-1.82-21.2-.24-2.76-.67-5.52-.82-8.28-.04-.72.65-1.47,1.01-2.21.65.49,1.71.88,1.88,1.51.51,1.83.66,3.77.95,5.66.04.25.14.49.21.74.1-.21.22-.42.3-.64,1.65-4.29,4.08-8.03,7.68-10.94,3.34-2.7,5.92-2.29,8.23,1.37,3.32,5.25,4.49,11.19,5.09,17.23.55,5.58.85,11.18,1.22,16.78.08,1.21.36,2.79-1.49,2.84-1.75.05-1.66-1.45-1.79-2.72-.85-8.24-1.55-16.49-2.73-24.69-.39-2.7-1.94-5.27-3.11-7.83-.79-1.71-1.98-1.75-3.42-.5-4.98,4.33-7.44,9.9-8.12,16.34-.25,2.38-.33,4.78-.5,7.54Z"/><path d="m92.78,87.85c.02,4.57-.71,8.97-2.94,13.03-3.45,6.27-9.78,6.54-13.17.24-4.73-8.8-4.66-17.95-.41-26.95,1.79-3.79,4.83-5.38,7.89-4.72,2.65.57,4.28,2.46,5.52,4.69,2.39,4.25,3.16,8.9,3.11,13.71Z"/><path d="m90.07,87.8c-.2-.05-.4-.1-.6-.14.09-4.04-.54-7.95-2.43-11.56-.89-1.7-1.95-3.58-4.16-3.52-2.19.05-3.28,1.9-4.05,3.66-3.26,7.48-3.18,15.05.2,22.43.72,1.58,2.56,3.34,4.15,3.65,2.16.42,3.54-1.86,4.15-3.75,1.13-3.51,1.85-7.17,2.73-10.76Z" style="fill:#fec833;"/><path d="m221.87,95.36c.93-.07,2.8-.15,4.65-.37.47-.06.92-.51,1.34-.83.58-.44,1.54-1.39,1.61-1.32.92.82,1.88,1.7,2.42,2.77.2.39-.63,1.88-1.11,1.94-5.62.73-11.31,2.3-16.84-.19-4.54-2.05-5.85-6.29-6.34-10.75-1.03-9.32.66-18.15,5.42-26.29.81-1.38,1.8-2.93,3.11-3.69,1.48-.86,3.41-1.03,5.18-1.27,1.18-.16,2.44-.02,3.6.24.59.13,1.57,1.06,1.49,1.23-.63,1.39,1.82,3.67-1.13,4.27-.52.1-1.27-.56-1.81-.99-3.27-2.57-4.85-2.38-7.15,1.07-3.42,5.12-5.02,10.88-5.49,16.92-.23,2.99-.25,6.06.2,9.02.97,6.41,3.47,8.34,10.85,8.25Z"/></g></g></svg>