<?xml version="1.0" encoding="UTF-8"?><svg id="b" xmlns="http://www.w3.org/2000/svg" viewBox="0 0 296.32 103.54" fill="currentColor"><g id="c"><g><path d="m1.81,92.04c-.52-13.59-1.03-26.52-1.49-39.45-.16-4.6-.15-9.2-.32-13.79-.06-1.53.55-2.34,1.91-2.97,10.14-4.67,19.17-2.71,27.48,4.33,6.3,5.34,10.9,12.01,14.53,19.26,1.62,3.24,2.04,7.14,2.69,10.79,1.41,7.87.7,15.44-4.21,22.1-1.36,1.85-3.06,3.56-4.89,4.94-2.49,1.88-5.07,4-7.96,4.91-7.67,2.43-15.23,1.68-22.25-2.56-1.04-.63-1.66-.92-1.71.73-.02.46-.55.9-.84,1.35-.33-.3-.65-.63-1.01-.89-3.45-2.54-1.31-6.28-1.94-8.75Z"/><path d="m5.37,90.92c0,.73-.09,1.8.04,2.84.07.55.37,1.24.8,1.54,7.91,5.6,18.73,5.33,26.29-.59.57-.44,1.15-.87,1.73-1.29,4.69-3.32,7.2-8.11,7.72-13.56.44-4.57.21-9.35-.66-13.86-1.87-9.69-7.42-17.36-14.95-23.5-5.24-4.27-11.26-6.17-18.15-4.27-5.75,1.59-5.74,1.45-5.39,7.45.87,14.97,1.7,29.94,2.57,45.24Z" style="fill:#fec833;"/><path d="m285.32,57.05c-3.02,0-6.05-.08-9.06.07-.59.03-1.57.97-1.62,1.55-.91,10.95-.46,21.84,1.73,32.63.07.34,1,.84,1.35.72,1.63-.55,3.16-1.4,4.8-1.9.46-.14,1.72.67,1.68.83-.27,1.18-.49,2.59-1.28,3.39-1.19,1.2-2.78,2.03-4.28,2.87-1.33.75-2.6.73-3.3-.96-.09-.22-.18-.51-.36-.61-4.19-2.35-3.47-6.77-4.11-10.43-1.52-8.67-1.69-17.45-.74-26.22.14-1.27-.38-1.78-1.63-1.66-1.57.14-3.16.35-4.73.3-.67-.02-1.74-.48-1.89-.97-.35-1.18-.07-2.27,1.6-2.35,2.01-.1,4.02-.28,6.01-.59.52-.08,1.27-.75,1.35-1.24,1.82-11.02,3.72-22.03,3.85-33.25.06-5.13.22-10.25.35-15.38.02-.72-.08-1.49.15-2.14.22-.63.78-1.15,1.2-1.71.44.59,1.21,1.16,1.26,1.78,1.11,16.27.94,32.48-2.05,48.58-.03.14-.06.28-.08.42-.4,2.74-.29,2.68,2.49,2.62,5.36-.11,10.74-.08,16.1.12.77.03,1.48,1.34,2.22,2.05-.79.49-1.56,1.34-2.37,1.39-2.87.17-5.75.07-8.63.07h0Z"/><path d="m206.59,78.04c.32,8.34,5.23,13.66,13.55,14.26,1.91.14,3.87-.12,5.78-.4.48-.07,1.05-.86,1.22-1.43.6-2.11,1-4.28,1.6-6.39.15-.52.76-.91,1.15-1.36.4.42,1.18.89,1.14,1.25-.42,3.24-.55,6.61-1.62,9.64-1.06,3.01-3.58,3.89-6.73,3.2-3.16-.7-6.69-.87-9.34-2.46-8.26-4.97-12.08-10.78-10.5-20.91,1.38-8.83,4.93-16.96,10-24.29,3.57-5.16,9.71-5.68,14.73-1.81,4.75,3.67,5.75,8.94,6.4,14.4.13,1.07.55,2.1.66,3.17.09.84.2,1.92-.23,2.48-.36.47-1.5.41-2.3.46-3.1.18-6.21.21-9.3.49-3.77.34-7.52.88-11.28,1.31-.47.05-1.1.17-1.4-.07-1.9-1.48-1.92.17-2.15,1.28-.5,2.38-.91,4.78-1.36,7.18Z"/><path d="m230.27,61.45c-.82-3.03-1.37-6.16-2.52-9.05-1.58-3.97-8.44-4.76-10.63-1.14-2.74,4.52-4.93,9.38-7.32,14.1-.49.96-.18,1.43.99,1.27,5.54-.8,11.07-1.64,16.63-2.29,1.87-.22,2.78-.82,2.85-2.89Z" style="fill:#fec833;"/><path d="m198.9,89.62c0,1.91.07,3.83-.04,5.74-.04.58-.59,1.13-.91,1.7-.41-.4-.83-.78-1.22-1.19-.16-.17-.23-.51-.41-.58-2.56-.91-1.86-3.07-1.92-4.94-.32-10.06-.22-20.17-2.93-29.98-.89-3.22-2.09-6.37-3.3-9.5-.73-1.88-2.03-2.19-3.62-.87-3.36,2.8-4.76,6.65-5.32,10.84-1.36,10.22-.15,20.39.68,30.56.08,1.04.12,2.11-.03,3.14-.04.31-.76.53-1.17.8-.59-1.7-2.72-2.21-2.8-4.52-.25-7.42-.81-14.84-1.39-22.24-.41-5.21-1.06-10.39-1.59-15.59-.05-.52-.18-1.09-.05-1.57.12-.43.52-1.02.85-1.07.34-.04,1.02.44,1.1.79.33,1.44.47,2.93.7,4.39.06.37.19.73.29,1.09.15-.33.33-.64.44-.98,1.16-3.67,2.66-7.14,6.05-9.33,2.78-1.8,5.95-1.16,7.85,1.57,3.52,5.08,5.36,10.87,6.26,16.86,1.24,8.23,1.99,16.54,2.94,24.81-.16.02-.32.04-.48.07Z"/><path d="m163.65,81.44c-.88-7.6-1.75-15.19-2.64-22.79-.05-.42-.2-.84-.34-1.25-1.33-3.83-3.91-4.27-6.71-1.19-3.67,4.05-4.97,9.04-4.89,14.23.13,7.6.81,15.19,1.22,22.79.04.65-.05,1.33-.24,1.94-.06.19-.95.35-.97.3-.8-1.78-2.82-2.55-3.04-5.01-1.06-11.54-2.51-23.05-3.76-34.57-.06-.56.4-1.19.62-1.78.56.47,1.44.85,1.62,1.44.54,1.73.79,3.55,1.17,5.33.06.26.23.49.34.73.12-.24.23-.48.36-.72,1.29-2.33,2.32-4.87,3.94-6.95,4.4-5.64,11.13-4.71,13.59,1.98,1.34,3.65,2.2,7.59,2.53,11.46.69,8.06.88,16.16,1.26,24.25.02.47.02.98-.14,1.42-.13.36-.46.84-.76.89-.29.05-.65-.39-.98-.62-3.37-2.34-2.81-5.88-2.82-9.24,0-.86,0-1.73,0-2.59.21-.02.42-.05.63-.07Z"/><path d="m113.79,72.12c.88-4.14,1.57-8.35,2.71-12.42.85-3,2.68-5.75,6.11-5.96,3.7-.23,6.94,1.34,9.22,4.4,1.63,2.19,3.21,4.42,4.61,6.76,3.33,5.59,4.89,11.64,3.34,18.07-2.04,8.47-10.4,12.41-17.29,8.12-4.82-3-7.43-7.62-7.82-13.39-.12-1.82-.26-3.63-.39-5.45-.16-.04-.32-.09-.49-.13Z"/><path d="m117.41,72.99c.68,3.5,1.05,7.11,2.13,10.49,1.53,4.79,7.76,7,11.66,4.41,3.65-2.42,4.97-6.06,5-10.27,0-.46-.37-.93-.59-1.39-.38-.75-.9-1.46-1.14-2.25-.9-2.92-1.53-5.93-2.63-8.76-.46-1.18-1.68-2.19-2.78-2.98-1.96-1.42-4.27-2.39-6.08-3.96-1.39-1.2-1.78-.7-2.42.5-2.37,4.43-2.65,9.25-3.15,14.21Z" style="fill:#fec833;"/><path d="m245.83,69.42c.55,6,1.02,12.01,1.7,18,.18,1.58.9,3.12,1.54,4.61.2.47.9.96,1.41,1,.36.03.99-.62,1.13-1.09.94-3.11,1.78-6.26,2.67-9.39.16-.55.22-1.3.6-1.56.69-.48,1.58-.84,2.4-.86.31,0,.96,1.1.91,1.65-.47,4.86-.94,9.77-3.45,14.11-1.33,2.3-4.39,1.87-6.55-.02-4.57-3.99-5.38-9.3-5.48-14.71-.17-8.85-.02-17.71.37-26.55.12-2.64,1.29-5.3,2.29-7.82,1.69-4.24,6.05-5.31,9.42-2.21,1.56,1.45,2.57,3.52,3.71,5.38.22.35-.1,1.04-.17,1.57-.38-.21-.84-.34-1.11-.65-.75-.86-1.3-1.95-2.16-2.65-1.08-.87-2.44-2.02-3.62-1.95-.97.06-2.24,1.54-2.71,2.67-1.98,4.81-2.51,9.91-2.43,15.09.03,1.77,0,3.55,0,5.32-.16.01-.31.03-.47.04Z"/><path d="m73.29,92.94c3.87.32,6.8-.8,9.08-3.35.6-.67,1.03-1.66,1.14-2.55.62-5.35-2.1-9.62-7.22-11.21-2.23-.69-4.54-1.21-6.85-1.49-3.13-.38-4.99-2.51-6.33-4.83-1.29-2.24.02-4.54,1.74-6.21,3.92-3.78,8.18-7.01,14.02-6.94.64,0,1.43.11,1.88.49.42.35.66,1.14.63,1.71-.02.27-.84.68-1.33.71-5.48.43-9.48,3.44-12.74,7.5-1.8,2.24-1.02,3.57,1.88,3.72,5.41.29,10.19,2.17,14.27,5.71,4.18,3.62,5.62,13.29,2.43,16.83-3.58,3.97-8.3,4.55-13.32,4.21-2.08-.14-3.48-1.16-4.58-2.75-.1-.15.34-1,.61-1.04,1.7-.27,3.41-.39,4.69-.53Z"/><path d="m101.38,97.51c-5.3.05-10.08-3.97-11.31-9.25-2.27-9.72-.98-19.13,2.05-28.45.46-1.41.78-2.88,1.35-4.24,1.51-3.62,6.07-5.32,9.31-3.14,1.29.87,1.99,2.83,2.63,4.42.86,2.12,1.51,4.35,2.05,6.58.15.64-.4,1.46-.62,2.19-.44-.42-.82-.93-1.32-1.25-2.67-1.7-2.55-4.73-3.46-7.25-.56-1.54-1.65-2.34-2.98-2.14-.9.13-2.1,1.17-2.38,2.06-1.13,3.61-1.93,7.31-2.89,10.98-1.8,6.89-1.38,13.78.04,20.66.67,3.26,2.82,4.97,6.16,4.78,2-.11,4-.46,5.99-.73,1.54-.2,2.79.23,3.02,1.87.23,1.67-1.03,2.01-2.4,2.16-1.76.19-3.5.49-5.25.74Z"/><path d="m59.1,95.01s-.25.44-.51.91c-.39-.27-.8-.52-1.16-.82-3.19-2.65-1.66-6.4-1.92-9.59-.54-6.57-.37-13.21-.39-19.81,0-.69.71-1.38,1.1-2.07.49.7,1.35,1.38,1.4,2.11.32,5.64.44,11.29.71,16.93.18,3.92.49,7.83.78,12.34Z"/><path d="m55.37,55.24c-.5.39-.81.76-.94.71-.45-.18-.84-.51-1.25-.78.19-.19.41-.55.57-.52.46.08.9.31,1.63.59Z"/></g></g></svg>