<?xml version="1.0" encoding="UTF-8"?><svg id="b" xmlns="http://www.w3.org/2000/svg" viewBox="0 0 222.49 115.23" fill="currentColor"><g id="c"><g><path d="m.07,4.96C.07,3.86-.13,2.71.14,1.67c.17-.65,1.04-1.12,1.6-1.67.51.59,1.39,1.13,1.48,1.78.26,1.89.24,3.82.27,5.74.14,12.28.25,24.56.4,36.84.18,14.58.39,29.16.59,43.74.1,7,.24,14,.26,21.01,0,2.13.56,3.02,2.95,2.9,13.16-.66,26.33-1.16,39.5-1.7,3.64-.15,7.28-.33,10.92-.29.75,0,1.49.92,2.23,1.41-.69.57-1.36,1.6-2.08,1.65-5.6.36-11.2.54-16.81.76-11.54.47-23.09.95-34.63,1.39-1.28.05-2.6-.04-3.84-.33-.54-.13-1.03-.89-1.31-1.47-.23-.48-.16-1.13-.16-1.7-.14-12.85-.25-25.71-.41-38.57-.17-14.39-.43-28.78-.57-43.16-.08-8.34-.01-16.69-.01-25.03-.15,0-.29,0-.44,0Z"/><path d="m150.21,100.81c-.41.37-1,1.29-1.41,1.21-.73-.13-1.78-.75-1.96-1.37-.71-2.43-1.12-4.95-1.66-7.43-.05-.24-.21-.46-.31-.69-.07.22-.15.43-.21.65-.52,1.74-.86,3.56-1.6,5.2-1.35,2.99-4.06,3.66-6.78,1.82-3.64-2.46-5.39-6.07-5.81-10.3-.54-5.48.56-10.73,2.96-15.64,1.36-2.78,3.25-5.13,6.89-5.01.34.01,1.02-.84,1.01-1.28-.27-7.9-.61-15.8-.95-23.7-.02-.43-.23-.96-.06-1.27.43-.75,1.03-1.4,1.56-2.09.59.63,1.62,1.21,1.69,1.9.39,3.42.63,6.87.73,10.32.41,13.93,2.32,27.69,4.43,41.43.3,1.98.91,3.91,1.46,6.25Z"/><path d="m142.26,83.38c-.33-3.7-.55-6.41-.83-9.12-.19-1.86-1.67-2.49-3.05-1.18-.98.93-1.82,2.13-2.37,3.37-1.83,4.09-2.91,8.44-2.2,12.89.38,2.4,1.65,4.72,2.82,6.91.43.81,1.75,1.14,2.66,1.7.51-.89,1.34-1.73,1.48-2.68.64-4.25,1.09-8.53,1.5-11.88Z" style="fill:#fec833;"/><path d="m89.36,107.99c-9.92-.15-15.93-5.76-15.28-15.02.31-4.45,1.22-8.99,2.74-13.16,1.08-2.96,3.3-5.74,5.62-7.95,3.25-3.1,6.84-3.1,10.26-.18,2.12,1.81,3.65,4.32,5.39,6.57.63.82,1.14,1.75,1.64,2.66.36.67,1.02,1.58.81,2.05-.27.59-1.25,1.11-1.99,1.21-5.6.75-11.23,1.27-16.82,2.09-3.74.55-3.9.7-4.17,4.54-.17,2.48-.23,5.17.54,7.47,1.56,4.69,6.21,6.99,12.09,6.43,2.11-.2,4.17-.97,6.28-1.11.75-.05,1.58.96,2.37,1.49-.55.69-1,1.87-1.66,2-2.58.49-5.22.65-7.84.93Z"/><path d="m95.67,80.86c-.14-.41-.19-.59-.26-.77-1.08-2.71-2.78-4.91-5.32-6.42-1.8-1.07-3.57-1-5.25.26-2.91,2.19-4.72,5.13-5.64,8.62-.06.21.48.84.68.82,4.89-.63,9.77-1.31,14.65-2.01.4-.06.77-.33,1.15-.5Z" style="fill:#fec833;"/><path d="m152.29,82.82c-.21-1.53-.64-3.07-.55-4.58.06-1.03.91-2,1.3-3.04.78-2.05,1.27-4.25,2.28-6.18,3.05-5.89,8.1-7.37,13.76-4.02,1.99,1.18,3.86,2.69,5.48,4.36,2.08,2.13,1.27,4.5-1.6,5.27-5.32,1.42-10.67,2.77-15.97,4.25-.59.17-1.35.96-1.43,1.54-1.1,8.12,1.7,12.38,10.64,14.39,1.27.29,2.8-.83,4.25-.98.91-.1,1.89.38,2.84.6-.58.79-.98,1.98-1.75,2.3-9.69,3.95-19.55-3.11-19.25-13.91Z"/><path d="m172.17,71.23c-1.18-.94-2.12-1.74-3.11-2.49-5.69-4.29-9.07-2.43-11.68,3.48-.31.7-.62,1.44-.69,2.18-.03.3.68.99.91.94,4.51-1.12,8.99-2.32,13.48-3.53.31-.08.59-.31,1.08-.58Z" style="fill:#fec833;"/><path d="m107.35,90.22c.1-4.96,1.04-9.7,4.57-13.43,1.3-1.37,3.07-2.5,4.84-3.18,2.72-1.05,4.97.71,5.14,3.61.53,9.27,2.81,18.16,5.75,26.93.23.67-.52,1.67-.82,2.52-.74-.4-1.93-.64-2.16-1.24-.91-2.37-1.51-4.85-2.24-7.29-.08-.26-.22-.51-.34-.76-.15.21-.35.4-.43.64-.89,2.59-2.03,5.09-5.11,5.41-3.26.34-5.62-1.67-6.94-4.28-1.36-2.7-1.94-5.8-2.87-8.72.2-.07.4-.14.6-.2Z"/><path d="m110.65,89.62c0,4.18.45,7.56,3.57,9.89,1.65,1.23,2.87,1.03,3.64-.88.65-1.62,1.26-3.39,1.26-5.1,0-4.72-.29-9.44-.53-14.16-.04-.91-.34-1.81-.52-2.71-.92.41-1.85.8-2.76,1.25-.29.14-.51.43-.74.68-3.11,3.29-3.83,7.38-3.94,11.04Z" style="fill:#fec833;"/><path d="m207.95,95.84c-1.75-.25-3.54-.36-5.24-.79-2.29-.57-3.41-2.85-2.46-4.95.26-.57,1.22-1.32,1.61-1.2.58.18.94,1.07,1.4,1.66.42.55.79,1.51,1.27,1.57,3.63.45,7.28.6,10.75-.93,3.92-1.73,4.99-6.75,2.17-10.07-1.76-2.06-4.1-2.91-6.69-3.26-1.28-.17-2.57-.32-3.83-.6-3.57-.79-5.21-3.23-4.69-6.88,1.07-7.53,8.25-13.38,15.81-12.86,3.32.22,5.59,3.89,3.88,6.51-.44.68-1.67.84-2.54,1.24-.08-.81-.36-1.67-.19-2.43.38-1.67-.67-2.34-1.83-2.16-2.09.32-4.31.74-6.12,1.76-2.94,1.64-4.81,4.38-5.64,7.68-.65,2.55.12,3.67,2.68,4.16,2.02.39,4.14.48,6.06,1.15,7.29,2.53,8.67,7.55,7.5,13.53-.28,1.44-1.65,2.92-2.91,3.86-2.86,2.13-6.26,2.84-10.97,3Z"/><path d="m184.07,76.52c.62,4.07,1.24,8.14,1.85,12.21.08.52.33,1.12.17,1.55-.3.79-.86,1.49-1.31,2.23-.65-.61-1.76-1.14-1.89-1.85-.82-4.43-1.43-8.89-2.1-13.35-.44-2.94-.94-5.87-1.2-8.83-.08-.85.55-1.76.85-2.65.72.36,1.43.75,2.17,1.08.17.08.57.03.64-.1,2.01-3.54,5.4-4.51,9.1-4.9,1.95-.2,3.91-.43,5.86-.49.54-.02,1.37.41,1.58.86.22.47.05,1.46-.32,1.78-.55.48-1.42.72-2.18.8-1.95.21-3.93.17-5.87.42-4.21.53-6.52,3.32-7.01,8.33-.09.95-.01,1.92-.01,2.87l-.34.04Z"/></g></g></svg>