<?xml version="1.0" encoding="UTF-8"?><svg id="b" xmlns="http://www.w3.org/2000/svg" viewBox="0 0 26.32 7.52" fill="currentColor"><g id="c"><path d="m17.02.81c-3.02.72-12.66,1.34-15.67,2.08C.76,3.05-.13,4.29.02,4.72c.35,1.04,1.19,1.95,1.97,2.79.09.09,1.42-.53,1.46-.89.14-1.46,1.11-1.59,2.19-1.73,1.24-.16,10.51.42,11.73.22,3.92.27,2.02-.98,5.94-1,.98,0,2.13-1,2.87-1.83.36-.41-.03-1.5-.08-2.28-.78.13-1.56.22-2.32.41-.65.16-1.29.67-1.92.63-3.54-.19-.17.43-3.7.04-.54-.06-1.14.24-1.13-.27Z"/></g></svg>