<?xml version="1.0" encoding="UTF-8"?><svg id="b" xmlns="http://www.w3.org/2000/svg" viewBox="0 0 252.26 154.46"><g id="c"><g><path d="m.15,21.47c0-1.25.18-2.53-.04-3.74-.53-2.97.86-4.75,3.13-6.44,5.55-4.12,11.9-6.1,18.54-7.43,7.34-1.46,14.69-1.48,21.98.27,16.48,3.96,23.74,19.61,16.23,34.84-3.47,7.05-9.23,11.96-15.51,16.29-8.96,6.18-18.69,10.75-29.24,13.55-3.33.88-6.64,1.88-9.9,2.99-.59.2-1.29,1.2-1.28,1.82.3,18.9.68,37.8,1.04,56.69.13,6.67.28,13.34.29,20,0,.76-.88,1.51-1.35,2.27-.44-.73-1.23-1.45-1.25-2.2-.36-15.15-.63-30.31-.92-45.47-.29-15.11-.57-30.22-.87-45.33-.26-12.71-.56-25.42-.83-38.13Z"/><path d="m31.68,5.49c-1.39.1-3.27.14-5.12.37-7.99,1-15.69,2.91-22.18,8-.79.62-1.45,1.94-1.44,2.94.11,12.09.35,24.18.56,36.27.09,4.94.16,9.88.33,14.82.01.39.8,1.14,1.06,1.07,2.64-.67,5.23-1.56,7.87-2.23,12.15-3.09,23.3-8.29,33.26-15.93,5.46-4.18,10.29-8.94,12.63-15.68,3.8-10.92.18-21.04-9.57-26.24-5.27-2.81-11.09-3.18-17.4-3.38Z" style="fill:#fec833;"/><path d="m99.43,90.99c-1.03,9.67-2.07,19.34-3.07,29.02-.95,9.15-1.85,18.31-2.76,27.47-.03.29.07.65-.07.85-.46.61-1,1.16-1.51,1.73-.39-.61-1.14-1.24-1.11-1.83.23-4.11.58-8.22.98-12.33,1.45-14.79,3.13-29.56,4.27-44.37.32-4.11-.79-8.36-1.49-12.5-.24-1.4-1.08-2.78-1.9-3.99-3.79-5.58-7.8-6.4-13.46-2.78-4.7,3-8.2,7.19-10.39,12.22-.9,2.06-.55,4.71-.61,7.1-.35,12.85-.65,25.7-.98,38.55-.17,6.62-.37,13.23-.56,19.85,0,.29.07.65-.07.85-.45.62-.99,1.18-1.5,1.77-.43-.66-1.21-1.31-1.22-1.98-.05-3.35.09-6.71.2-10.07.14-4.27.34-8.53.46-12.79.34-12.85.63-25.7.97-38.55.37-13.95.77-27.9,1.15-41.85.39-14.09.76-28.19,1.16-42.28.03-1.1,0-2.24.25-3.29.16-.66.83-1.19,1.27-1.78.47.61,1.35,1.21,1.35,1.82-.02,5.03-.18,10.07-.33,15.1-.12,3.88-.31,7.76-.41,11.64-.43,16.21-.83,32.41-1.24,48.62-.01.46.09.92.15,1.38.31-.33.66-.64.93-1,2.72-3.61,5.94-6.65,10-8.72,5.11-2.6,9.57-1.68,13.48,2.55,3.75,4.05,4.88,9.03,5.41,14.25.18,1.76.24,3.54.36,5.31.11.02.22.03.33.05Z"/><path d="m165.35,146.96c-.33-4.74-.85-9.47-.93-14.21-.1-6.33.24-12.66.25-18.99,0-7.67-.11-15.34-.24-23.01-.09-5.42-.34-10.83-.45-16.25-.03-1.52.47-2.56,2.29-1.43.19.12.88-.26,1.11-.57,3.1-4.25,7.31-6.74,12.42-7.66,3.29-.59,6.01.47,8.04,3.27,3.39,4.68,4.73,10.01,5.09,15.66.82,12.75-.58,25.38-2.12,38.01-.85,6.95-1.61,13.91-2.36,20.87-.09.84.29,1.77.09,2.56-.18.7-.86,1.27-1.32,1.9-.46-.57-1.33-1.16-1.31-1.7.24-4.92.58-9.83,1-14.74,1.16-13.42,2.6-26.81,3.43-40.25.29-4.61-.67-9.35-1.51-13.95-.4-2.18-1.8-4.19-2.86-6.23-1.32-2.54-3.58-3.3-6.22-2.66-5.64,1.36-9.72,4.56-12.15,10-1.64,3.66-.41,7.26-.44,10.86-.09,9.64.08,19.27.23,28.91.15,9.34.41,18.68.62,28.02.05,2.11.2,4.23.04,6.32-.05.67-.95,1.27-1.45,1.91-.45-.63-1.22-1.22-1.3-1.9-.2-1.56-.06-3.16-.06-4.74.04,0,.08,0,.13,0Z"/><path d="m231.19,100.43c-.23-.59-.42-1.18-.68-1.74-3.87-8.51-7.76-17.02-11.61-25.54-.57-1.26-1.06-2.59-1.33-3.94-.12-.59.39-1.32.62-1.98.63.28,1.63.4,1.84.87.97,2.16,1.59,4.48,2.56,6.65,3.1,6.97,6.3,13.89,9.47,20.82.16.36.48.65.73.97.19-.32.44-.62.57-.96,3.93-9.74,7.85-19.48,11.76-29.23.05-.13.06-.31.15-.4.68-.65,1.38-1.28,2.08-1.92.13.92.64,1.99.34,2.74-4.14,10.58-8.43,21.11-12.55,31.69-.45,1.16-.5,2.74-.1,3.91,2.49,7.21,5.04,14.4,7.84,21.49,1.15,2.92,3.16,5.5,4.44,8.38,1.74,3.92,3.19,7.98,4.71,12.01.41,1.09.3,2.34-1.13,2.34-.57,0-1.37-1.13-1.67-1.9-1.3-3.33-1.95-7.02-3.75-10.03-5.41-8.97-8.83-18.72-12.1-28.56-.16-.48-.44-.93-.66-1.39-.27.42-.61.81-.79,1.27-5.5,14.44-10.98,28.88-16.44,43.32-.23.61-.09,1.38-.38,1.94-.41.79-1,1.53-1.66,2.14-.21.19-1.21,0-1.25-.18-.18-.72-.38-1.6-.14-2.25,6.08-16.16,12.21-32.31,18.33-48.45.25-.67.51-1.34.78-2.06Z"/><path d="m105.57,126.71c-.28-13.71.88-27.31,4.31-40.62.75-2.9,1.93-5.72,3.13-8.48.77-1.77,1.95-3.46,4.23-3.37,2.27.09,3.3,1.94,3.71,3.71,1.03,4.37,2.15,8.79,2.44,13.24,1.12,17.13-.11,34.13-4.23,50.83-.85,3.45-2.26,6.84-3.96,9.96-1.9,3.48-5.5,3.26-6.74-.49-1.41-4.28-2.27-8.81-2.8-13.29-.45-3.78-.09-7.66-.09-11.49Z"/><path d="m108.3,126.7c0,3.74-.31,7.51.08,11.21.44,4.12,1.48,8.17,2.35,12.24.11.51.76.91,1.16,1.36.44-.4,1.08-.72,1.3-1.22,1.06-2.46,2.28-4.89,2.94-7.47,4.57-17.87,5.79-36.04,4.27-54.38-.28-3.35-1.34-6.65-2.13-9.95-.13-.53-.73-.94-1.11-1.4-.45.38-1.13.67-1.32,1.15-1.21,2.96-2.63,5.89-3.41,8.97-3.3,12.95-4.32,26.18-4.12,39.5Z" style="fill:#fec833;"/><path d="m133.1,112.87c.44-12.43,1.35-23.82,4.95-34.85,1.13-3.46,2.86-6.5,6.71-6.85,3.76-.34,5.96,2.27,7.82,5.35,3.28,5.43,3.85,11.22,3.15,17.33-.41,3.61-.33,3.64-4.03,4.07-4.47.52-8.95,1.03-13.43,1.5-1.19.13-1.85.58-1.82,1.88.17,9.96.43,19.91.44,29.87,0,5.08,1.53,9.72,3.35,14.31.61,1.53,1.61,2.92,2.5,4.33.66,1.04,1.67,1.13,2.4.25,1.55-1.85,2.97-3.81,4.38-5.78.41-.57.42-1.46.88-1.95.53-.57,1.36-.86,2.06-1.28.14.76.58,1.63.36,2.26-1.2,3.38-2.81,6.54-5.79,8.75-2.72,2.01-4.89,1.76-6.76-1.01-3.43-5.09-5.43-10.77-5.9-16.89-.57-7.41-.9-14.83-1.27-21.31Z"/><path d="m153.31,88.68c.02-4.47-1.36-8.55-3.99-12.07-.95-1.27-2.71-2.46-4.23-2.64-1.9-.22-3.34,1.43-3.8,3.33-1.47,6.08-2.81,12.19-4.17,18.29-.24,1.1.31,1.42,1.4,1.26,2.74-.4,5.49-.81,8.25-1.04,6.35-.54,6.55-.71,6.54-7.13Z" style="fill:#fec833;"/><path d="m206.7,74.96c-.72,10.9-1.47,21.81-2.14,32.72-.24,3.83-.3,7.67-.4,11.5-.19,7.52-.33,15.05-.53,22.57-.02.66-.1,1.42-.45,1.93-.34.5-1.06.73-1.62,1.08-.33-.57-.95-1.15-.93-1.71.2-6.61.46-13.22.78-19.82.63-12.93,1.32-25.85,1.94-38.78.19-3.98.17-7.96.43-11.93.05-.82.91-1.6,1.4-2.39.42.79.98,1.54,1.2,2.38.2.76.04,1.62.04,2.44.09,0,.18.01.27.02Z"/><path d="m204.38,60.93c-.66-.84-1.07-1.37-1.49-1.91.5-.39,1.1-1.16,1.48-1.06.57.14,1.15.82,1.4,1.41.09.22-.72.83-1.4,1.56Z"/></g></g></svg>