<?xml version="1.0" encoding="UTF-8"?><svg id="b" xmlns="http://www.w3.org/2000/svg" viewBox="0 0 618.45 177.72" fill="currentColor">
  <path d="m95.73,143.97c-.99-25.49-1.42-51.02-3.17-76.46-1.01-14.59-4.18-29.03-6.31-43.55-.49-3.32-.89-6.68-.9-10.02,0-1.53,1.12-3.04,1.62-4.59.38-1.18.46-2.46.9-3.6.77-2.01,1.41-5.37,2.66-5.65,3.38-.75,3.38,2.6,3.59,4.88,1.79,20.05,3.39,40.12,5.27,60.17.61,6.48,1.85,12.9,2.83,19.35.08.5.38.96.58,1.44.27-.49.57-.97.82-1.47,2.55-5.23,4.35-11.01,7.77-15.58,9.59-12.83,30.73-10,37.03,4.71,5.81,13.55,8.68,27.78,9.07,42.52.31,11.98.98,23.96,1.03,35.94.01,3.25-1.46,6.6-2.72,9.71-.34.83-2.8,1.7-3.56,1.27-1.12-.65-2.22-2.42-2.24-3.73-.2-11.88-.08-23.77-.2-35.65-.16-14.73-1.62-29.26-6.08-43.43-1.94-6.16-5.87-9.46-12.01-10.45-1.19-.19-2.59-.27-3.66.17-9.56,3.93-16.87,9.75-19.38,20.63-3.4,14.72-2.55,29.31-.4,44.02.79,5.4,1.35,10.89,1.28,16.33-.08,6.23-.88,12.47-1.64,18.67-.14,1.17-1.38,2.78-2.43,3.08-.98.29-2.4-.86-3.59-1.45-.3-.15-.4-.85-.66-.89-6.13-.98-4.55-5.89-4.85-9.7-.43-5.54-.61-11.1-.9-16.66.08,0,.16,0,.24-.01Z"/><path d="m.16,32.41c0-1.28-.41-2.61.08-3.34,1.37-2.05,3.1-3.85,4.69-5.74,1.32,1.13,2.52,2.46,4,3.3.65.37,2.12.08,2.78-.45,8.22-6.65,17.56-10.07,28.15-10.01,16.91.09,28.72,8.58,35.65,23.34,4.91,10.45,7.32,21.48,1.74,33-5.01,10.34-13.16,16.43-23.81,19.19-12.67,3.29-25.53,5.85-38.27,8.91-.79.19-1.8,2.01-1.69,2.96,1.57,14,3.43,27.97,4.95,41.98.83,7.7,1.49,15.45,1.47,23.18,0,2.7-1.93,5.67-3.65,8.02-1.49,2.04-4.67.65-5.14-2.43-.98-6.53-1.79-13.11-2.25-19.69-1.98-28.68-3.73-57.37-5.71-86.05-.84-12.14-2-24.26-3-36.17Z"/><path d="m38.6,22.76c-8.09-.49-15.66,3-22.7,8.31-2.54,1.91-3.69,3.92-3.62,7.18.36,16.69.49,33.38.72,50.07.06,4.65,1.94,6.4,6.55,5.28,11.99-2.92,24.08-5.63,35.81-9.39,13.4-4.29,20.43-17.31,17.79-30.93-3.74-19.32-16.22-30.65-34.55-30.52Z" style="fill:#fec833;"/><path d="m324.89,99.39c1.58,9.82,3.41,19.6,4.66,29.46,1.02,8.09,1.68,16.26,1.72,24.4,0,1.76-3.34,3.53-5.15,5.3-1.74-2.26-4.67-4.36-5.02-6.81-1.77-12.52-2.66-25.16-4.25-37.71-1.95-15.39-4.29-30.72-6.49-46.08-.54-3.76,4.88-10.05,8.66-9.97,2.55.05,4.64,4.11,4.23,8.15-.1.99-.1,2-.15,3,.53-.88,1.09-1.74,1.58-2.64,6.27-11.54,17.55-18.31,28.42-17.03,10.04,1.18,18.95,8.5,21.12,19.69,2.8,14.45,4.44,29.15,6.05,43.8,1.03,9.41,1.24,18.92,1.51,28.39.04,1.38-1.63,2.8-2.51,4.2-1.28-1.01-3.55-1.91-3.67-3.05-.83-7.6-1-15.27-1.76-22.88-1.53-15.33-3.3-30.65-5.01-45.96-.14-1.23-.56-2.43-.93-3.62-4.56-14.9-20.32-18.9-31.63-8.16-6.89,6.55-9.04,14.92-9.8,23.9-.38,4.49-.56,8.99-.83,13.49-.25.05-.5.1-.74.15Z"/><path d="m487.84,44.2c-1.23,2.23-2.44,3.87-3.11,5.7-3.7,10.08-7.11,20.26-10.93,30.29-2.49,6.54-5.64,12.82-8.18,19.34-.53,1.37-.28,3.61.53,4.84,8.45,12.78,17.17,25.38,23.19,39.57.19.44.37.89.48,1.36.62,2.59,1.93,5.63-1.48,7.01-3.44,1.39-4.23-2-5.54-4.08-7.19-11.41-14.35-22.84-21.5-34.27-1.23-1.97-1.99-1.53-2.85.29-5.74,12.13-11.43,24.29-17.38,36.31-.68,1.38-2.87,2.01-4.36,2.99-.64-1.61-2.24-3.58-1.78-4.77,3.64-9.47,7.6-18.82,11.59-28.16,2.18-5.11,4.7-10.09,6.83-15.22.45-1.09.28-2.84-.31-3.9-4.98-9.07-9.94-18.18-15.29-27.03-3.61-5.97-7.93-11.52-11.78-17.35-2.08-3.14-1.09-9.63,1.77-11.91,2.22-1.77,3.98-.74,5.07,1.53,2.3,4.75,4.23,9.7,6.81,14.28,5.82,10.34,11.93,20.51,18.03,30.69.07.12,2.03-.38,2.28-.95,5.37-12.2,10.61-24.46,15.91-36.69,1.56-3.61,3-7.3,4.93-10.7.66-1.17,2.68-2.17,4.04-2.13,1.02.03,1.98,1.86,3.02,2.95Z"/><path d="m222.54,122.63c-1.84,7.48-2.74,15.36-5.71,22.36-7.58,17.85-26.18,19.4-37.24,3.2-6.9-10.11-10.9-21.51-9.05-34,1.75-11.82,3.86-23.61,6.6-35.23.79-3.37,3.87-6.56,6.61-9.03,2.59-2.33,6.04-2.11,8.99.27.58.47,1.27,1.01,1.96,1.1,5.81.82,9.61,4.63,12.93,8.91,9.54,12.3,13.75,25.44,13.79,42.13.38.09.75.18,1.13.28Z"/><path d="m209.92,124.31c-.3-4.96-.41-8.89-.81-12.79-1.07-10.62-3.02-20.81-11.4-28.65-6.23-5.82-9.92-5.69-13.05,2.31-2.58,6.61-4.36,13.69-5.34,20.72-1.48,10.6-.67,21.26,2.59,31.56,2.35,7.44,8.25,12.14,14.26,11.73,7.12-.48,11.05-4.5,12.54-13.33.7-4.14.89-8.36,1.21-11.55Z" style="fill:#fec833;"/><path d="m274.03,154.59c-15.65,2.3-28.61-11.09-33.34-20.84-5.17-10.68-6.3-21.58-3.47-33.02,1.82-7.34,3.28-14.77,5.37-22.03.91-3.14,2.64-6.21,4.61-8.85,6.49-8.68,15.78-10.06,24.37-3.4,8.61,6.68,15.45,14.61,15.97,26.4.14,3.26-.68,5.21-3.9,5.89-8.53,1.79-17.08,3.48-25.59,5.36-4.29.95-8.53,2.13-12.73,3.43-.63.2-1.25,1.65-1.24,2.51.23,11.94,4.03,22.61,12.02,31.55,5.53,6.19,20.91,8.27,27.6,3.68,1.44-.99,2.09-3.52,2.53-5.46.55-2.41.1-5.08.86-7.38.44-1.33,2.39-2.17,3.66-3.22.91,1.25,2.59,2.51,2.58,3.76-.03,4.39-.42,8.81-1.13,13.15-.24,1.47-1.61,3.02-2.88,3.99-4.65,3.59-9.91,5.42-15.29,4.47Z"/><path d="m244.2,99.07c1.23.23,2.3.74,3.23.55,10.24-2.07,20.48-4.17,30.66-6.51.9-.21,2.19-2.39,1.95-3.29-2.41-8.81-7.49-15.32-16.36-18.65-3.69-1.39-6.49-.93-8.97,2.04-5.99,7.2-7.83,16.09-10.51,25.86Z" style="fill:#fec833;"/><path d="m580.59,134.99c6.08-.97,11.38-1.38,16.42-2.72,12.97-3.44,16.35-8.19,14.42-21.4-.87-5.97-3.18-11.79-5.3-17.51-1.59-4.28-5.1-6.3-9.8-6.03-6.41.36-12.85.41-19.23,1.06-14.15,1.44-25.88-11.28-22.64-25.75,4.84-21.59,22.78-34.85,47.42-26.94,1.55.5,3.54,2.52,3.68,3.99.45,4.76.23,9.6-.01,14.39-.04.71-1.69,1.96-2.46,1.87-1.14-.14-2.58-1.02-3.15-2.02-1.91-3.31-3.24-6.96-5.29-10.16-1-1.56-3.02-3.34-4.7-3.46-9.01-.65-16.83,2.4-22,9.94-2.92,4.25-4.89,9.27-6.58,14.19-.63,1.83.75,4.37,1.24,6.57.44,1.98.27,4.81,1.52,5.75,2.9,2.19,6.39,4.56,9.82,4.87,6.25.57,12.64-.12,18.94-.62,10.95-.86,16.35,2.48,20.61,12.58,3.22,7.63,4.81,15.45,4.94,23.76.14,8.77-4.16,14.69-11.4,18.12-10.98,5.2-22.84,6.58-34.86,4.77-7.36-1.11-12.17-6.79-11.77-14.04.15-2.6,2.47-5.25,4.28-7.48.42-.52,3.2.12,4.14,1.02.6.57.27,2.93-.44,3.91-2.15,2.95-2.17,6.75,1.16,8.34,3.56,1.7,7.71,2.16,11.02,3.01Z"/><path d="m537.4,131.3c1.63,0,3.35.32,4.86-.11,1.09-.31,2.36-1.46,2.73-2.52.89-2.57,2.56-3.88,4.62-2.15,1.54,1.29,2.74,3.82,2.75,5.8,0,1.39-2.18,3.86-3.55,3.99-6.91.64-13.94,1.33-20.82.77-17.91-1.45-27.17-12.92-31.66-29.16-4.63-16.74-3-33.16,3.77-48.98,5.35-12.51,18.73-15.6,29.15-6.81,8.14,6.88,13.11,15.95,15.99,26.14.97,3.44-1.15,4.89-4.23,5.44-13,2.34-26.01,4.69-38.99,7.15-.6.11-1.4,1.44-1.38,2.18.27,9.6,2.72,18.72,7.97,26.7,3.7,5.63,9.35,9.28,16.21,10.4,4.15.68,8.36,1,12.54,1.49.01-.12.03-.23.04-.35Z"/><path d="m516.53,52.33c-3.31,2.4-7.69,3.98-9.18,6.99-2.88,5.84-4.16,12.46-5.97,18.8-.11.39,1.04,1.67,1.53,1.63,10.87-.78,21.74-1.64,32.6-2.65.65-.06,1.84-1.95,1.64-2.27-3.64-5.81-7.11-11.79-11.4-17.1-1.92-2.38-5.58-3.36-9.23-5.4Z" style="fill:#fec833;"/><path d="m408.23,63.06c1.77,21.2,3.57,42.41,5.3,63.62.24,2.96.53,5.98.13,8.88-.17,1.25-2.05,2.27-3.15,3.39-1.06-1.16-2.96-2.25-3.07-3.5-1.53-17.28-2.86-34.58-4.15-51.87-.68-9.08-1.35-18.17-1.66-27.27-.05-1.61,1.69-3.28,2.6-4.92,1.26,1.31,3.11,2.43,3.65,3.99.82,2.38.72,5.07,1.02,7.62-.23.02-.45.04-.68.07Z"/><path d="m405.86,28.52c-2.31,1.95-4.3,3.97-4.55,3.78-1.65-1.29-3.19-2.93-4.14-4.78-.22-.43,2.24-3.18,2.95-2.98,1.72.48,3.13,2.06,5.74,3.98Z"/></svg>