<?xml version="1.0" encoding="UTF-8"?><svg id="b" xmlns="http://www.w3.org/2000/svg" viewBox="0 0 26.32 35.05" fill="currentColor"><g id="c"><path d="m10.76,30.09c-.88-2.93-.23-1.85-.4-4.86.44-5.39.38-1.75.93-5.26-.03-1.97-.22-2.05-1.96-1.76-1.23.21-2.46.37-3.7.53-1.07.14-2.04.26-2.19,1.73-.03.36-1.37.98-1.46.89-.77-.84-1.61-1.74-1.97-2.79-.15-.43.74-1.67,1.34-1.82,3.01-.75,6.09-1.19,9.11-1.91.58-.14,1.4-.99,1.42-1.54.39-7.97.07,4.22.45-7.19.08-2.52.04-1.02.18-3.54.05-.91.89-2.42,1.57-2.54,1.62-.28,1.81,1.31,1.8,2.49-.06,9.25,1.23,7.85,1.2,8.85.37.71.23,1.37-.07,3.3-.01.51.59.21,1.13.27,3.52.39.16-.23,3.7-.04.62.03,1.26-.47,1.92-.63.76-.19,1.55-.28,2.32-.41.05.78.45,1.86.08,2.28-.74.83-1.88,1.83-2.87,1.83-3.92.02-2.02,1.26-5.94,1-1.48-.1-2.45-.49-2.39,1.08.1,2.83.04.14.04,2.97-.18.01-.01,3.12-.19,3.14,1.06,3.34.91,4.03,1.06,5.26.11.99-.52,2.56,0,3.54.31.58-3.58-1.47-3.82-1.07"/></g></svg>