<?xml version="1.0" encoding="UTF-8"?><svg id="b" xmlns="http://www.w3.org/2000/svg" viewBox="0 0 239.54 126.59"  fill="currentColor"><g id="c"><g><path d="m4.06,71.42c0,14.92,0,29.84,0,44.77,0,2.69.25,5.38.1,8.05-.05.84-.92,2.2-1.59,2.32-1.49.27-1.58-1.12-1.59-2.27-.09-9.12-.19-18.23-.26-27.35-.11-13.91-.21-27.83-.32-41.74-.09-11.13-.18-22.26-.29-33.39-.03-3.4-.17-6.81-.09-10.21.02-.76.56-1.93,1.16-2.19,5.25-2.22,10.45-4.66,15.88-6.31,13.47-4.09,27.01-4.33,40.42.46,3.54,1.26,6.65,3.21,8.88,6.35,2.56,3.61,3.11,7.54,1.41,11.6-2.9,6.93-7.92,12.23-14.18,16.04-5.91,3.6-12.33,6.34-18.53,9.46-.37.19-.74.39-1.11.59.4.1.79.24,1.19.3,1.8.26,3.62.41,5.41.75,7.94,1.52,12.53,6.51,13.79,14.28,1.17,7.18,2.04,14.43,2.58,21.69.77,10.47,1.14,20.97,1.56,31.46.03.69-.88,1.42-1.36,2.14-.59-.56-1.61-1.06-1.71-1.7-.35-2.36-.39-4.77-.56-7.16-1.06-14.53-2-29.07-3.27-43.58-.39-4.52-1.8-8.9-5.92-11.7-3.57-2.42-7.72-2.75-11.83-3.1-8.88-.75-17.19,1.86-25.46,4.55-1.43.47-2.76,1.35-4.02,2.22-.42.29-.64,1.13-.65,1.73-.06,3.98-.03,7.97-.03,11.95.12,0,.24,0,.37,0Z"/><path d="m3.38,33.33c.09,0,.19,0,.28,0,0,6.23.02,12.47-.02,18.7,0,1.19.26,1.56,1.48,1.08,1.47-.58,3.01-.97,4.51-1.47,10.09-3.35,20.3-6.39,30.23-10.16,8.86-3.36,16.57-8.66,22.27-16.46,2-2.74,3.75-5.68,3.17-9.27-.78-4.84-4.26-7.38-8.45-8.98-8.53-3.26-17.4-4.19-26.44-3.18-9.14,1.02-17.82,3.68-25.97,7.98-.5.27-1.02,1.07-1.02,1.63-.07,6.71-.05,13.42-.05,20.13Z" style="fill:#fec833;"/><path d="m132.12,28.54c.37,6.7.96,13.39,1.07,20.09.14,8.48-.19,16.98-.17,25.46.02,10.38,2.2,20.46,4.42,30.53.27,1.21.89,2.55-.89,3.1-1.16.36-2.53-1.15-2.71-2.76-.14-1.28-.37-2.55-.57-3.82-.03-.18-.15-.34-.22-.51-.11.18-.23.35-.33.53-.02.04-.02.09-.03.14-.73,2.59-1.23,5.62-4.39,6.17-3.38.58-6.38-1.09-8.29-3.7-5.1-6.97-7.47-14.78-5.65-23.44.7-3.31,1.58-6.66,2.92-9.75,1.99-4.61,5.63-7.14,10.86-7.03.34,0,1.01-.71,1.01-1.09-.09-10.84-.24-21.67-.39-32.51-.03-2.3-.22-4.61-.05-6.9.06-.76,1.01-1.45,1.56-2.17.56.69,1.48,1.31,1.62,2.08.31,1.83.26,3.72.35,5.59-.03,0-.06,0-.1,0Z"/><path d="m129.73,82.69c-.1,0-.19,0-.29,0,0-4.65-.03-9.3.02-13.95.02-1.4-.67-1.9-1.91-1.93-3.24-.07-5.62,1.56-6.94,4.3-4.68,9.74-5.03,19.5.67,29,.84,1.4,2.27,2.63,3.7,3.47,2.51,1.49,3.37,1.01,4.18-1.84.29-1.01.54-2.07.55-3.1.05-5.32.03-10.63.03-15.95Z" style="fill:#fec833;"/><path d="m224.69,71.9c.21,2.87.51,5.73.57,8.6.01.68-.8,1.39-1.23,2.08-.63-.47-1.71-.86-1.81-1.43-.62-3.58-1.06-7.19-1.5-10.8-.49-4.07-1-8.12-3.59-11.52-1.55-2.03-2.47-2-4,.02-3.26,4.32-3.85,9.25-3.02,14.37.87,5.39,2.07,10.74,2.97,16.13.12.71-.61,1.57-.95,2.36-.8-.45-2.13-.74-2.32-1.37-.93-3.11-1.71-6.28-2.27-9.48-1.25-7.17-2.34-14.37-3.5-21.56-.19-1.15-.6-2.62,1.02-2.7.72-.04,1.7,1.2,2.2,2.08.45.8.4,1.87.57,2.83.47-.88.9-1.79,1.43-2.64,1.39-2.26,2.76-4.78,5.81-4.79,3.04-.02,4.48,2.45,5.9,4.7.57.91,1.03,1.89,1.54,2.83.44-1,.72-2.11,1.35-2.97,1.43-2,2.73-4.26,4.63-5.72,3.43-2.64,8.21-1.22,9.52,2.9,1,3.14,1.38,6.57,1.49,9.89.31,9.82-.97,19.52-2.89,29.14-.14.72-.46,1.51-.95,2.02-.32.33-1.38.46-1.64.21-.46-.45-.84-1.3-.75-1.92.8-5.94,2.07-11.83,2.48-17.79.41-6,.08-12.05-.09-18.08-.05-1.75-.49-3.68-2.61-4.21-2.27-.56-3.72.78-4.89,2.51-2.93,4.35-3.55,9.24-3.47,14.33Z"/><path d="m72.72,86.76c.26-5.27,2.22-10.93,6.63-15.54,6.05-6.33,15.51-5.97,21.15.79,1.37,1.64,2.46,3.54,3.52,5.41,1.1,1.97.37,3.12-1.86,3.52-6.59,1.17-13.2,2.27-19.75,3.67-2.07.44-3.98,1.71-5.89,2.72-.34.18-.49.99-.48,1.5.04,5.72,3.2,10.5,8.98,12.45,4.24,1.43,8.73,2.17,13.15,2.94.71.12,2.18-1.02,2.4-1.82.49-1.75.3-3.68.58-5.5.12-.75.74-1.43,1.14-2.14.66.49,1.76.87,1.91,1.48.74,3.08.52,6.19-1.32,8.84-1.28,1.84-3.06,3.05-5.67,2.39-4.22-1.08-8.61-1.6-12.73-2.95-7.76-2.54-11.8-8.57-11.77-17.76Z"/><path d="m88.43,69.78c-.85.26-2.18.42-3.27,1.03-4.43,2.5-6.87,6.54-8.25,11.3-.03.1.73.66,1,.59,2.62-.76,5.17-1.84,7.82-2.39,4.3-.89,8.67-1.53,13.03-2.12,1.55-.21,1.72-.57.93-1.89-2.47-4.11-6.25-5.88-11.26-6.5Z" style="fill:#fec833;"/><path d="m155.23,61.38c4.16.67,8.03,2.32,11.29,5.27,1.24,1.13,2.38,2.37,3.55,3.56,1.23,1.25,1.13,2.61-.55,3.13-4.34,1.34-8.73,2.52-13.14,3.59-2.98.72-6.04,1.08-9.03,1.73-.52.12-1.29.94-1.27,1.4.11,2.58.35,5.16.71,7.72.35,2.45,1.71,4.42,3.82,5.67,2.26,1.34,4.56,2.78,7.04,3.52,1.69.5,3.72-.09,5.58-.29.75-.08,1.48-.63,2.2-.58.64.04,1.59.5,1.75.99.16.48-.33,1.62-.81,1.81-3.64,1.51-7.36,2.6-11.23.66-1.03-.52-2.06-1.04-3.11-1.5-6.27-2.74-8.96-7.68-9.14-14.36-.04-1.64-.88-3.25-1.26-4.9-.12-.54-.03-1.19.15-1.72.36-1.04,1.04-2,1.25-3.06,1.16-6.09,5.57-11.39,10.46-12.4.51-.11,1.04-.15,1.73-.25Z"/><path d="m155.69,64.73c-4.43.04-9.84,6.27-9.34,10,.03.26.66.68.94.62,6-1.23,11.99-2.5,17.96-3.83.2-.04.47-.94.32-1.12-2.71-3.41-6.43-4.97-9.89-5.67Z" style="fill:#fec833;"/><path d="m190.45,96.31c-1.9-.19-3.84-.21-5.7-.61-8.23-1.79-12.53-8.68-11.14-17.7,1.05-6.85,4.24-12.8,7.99-18.46,1.75-2.64,4.38-3.46,7.45-2.58,4.56,1.31,7.4,4.43,9.07,8.74.63,1.64-.02,2.97-1.6,3.47-4.47,1.4-8.95,2.8-13.49,3.89-5.84,1.39-7.37,3.88-6.13,10.82.94,5.27,4.92,8.77,10.28,8.96,2.16.08,4.33-.13,6.47.09.83.08,1.58.98,2.36,1.5-.74.6-1.4,1.47-2.25,1.73-1.01.3-2.18.07-3.28.07,0,.03-.01.07-.02.1Z"/><path d="m186.34,59.89c-.35.24-1.34.59-1.83,1.28-1.27,1.79-2.37,3.71-3.44,5.63-.64,1.15-1.07,2.42-1.6,3.63,1.25-.22,2.52-.37,3.75-.68,3.48-.88,6.94-1.8,10.39-2.8.41-.12.99-.91.91-1.27-.55-2.67-4.77-5.82-8.18-5.8Z" style="fill:#fec833;"/></g></g></svg>