<?xml version="1.0" encoding="UTF-8"?><svg id="b" xmlns="http://www.w3.org/2000/svg" viewBox="0 0 270.49 184.44" fill="currentColor"><g id="c"><g><path d="m36.01,184.44c-7.15-.69-14.21-1.33-21.26-2.1-1.07-.12-2.18-.69-3.07-1.33-.37-.27-.45-1.39-.21-1.91.18-.39,1.13-.69,1.67-.6,3.06.49,6.07,1.33,9.15,1.63,14.92,1.47,29.69.69,44.21-3.32,8.32-2.3,15.79-6.13,22.32-11.81,9.6-8.36,12.1-19.44,7.14-32.31-3.74-9.72-11.07-16.22-19.59-21.55-8.97-5.62-19.05-8.51-29.13-11.36-9.6-2.71-19.26-5.28-28.71-8.46-4.56-1.54-8.97-3.94-12.96-6.67-5.9-4.05-7.05-9.93-3.83-16.36,2.79-5.56,7.22-9.8,11.91-13.71,13.95-11.64,29.79-19.39,47.76-22.43,3.71-.63,7.65-.54,11.39-.06,2.11.27,4.11,1.9,5.98,3.18.61.42.78,1.63.92,2.51.05.3-.58.92-1,1.03-.41.1-1.15-.11-1.37-.44-1.99-2.92-5.01-3.58-8.19-3.65-7.36-.17-14.33,1.84-21.22,4.14-13.08,4.36-24.7,11.25-34.8,20.59-3.03,2.8-5.75,6.09-8.01,9.54-3.27,5.01-2.2,9.58,2.46,13.29,5.48,4.35,12.03,6.22,18.58,8.15,13.02,3.83,26.14,7.39,38.96,11.8,11.71,4.02,22.06,10.59,29.29,20.95,6.51,9.33,9.39,19.68,5.79,30.95-2.48,7.76-8.22,13.03-14.71,17.56-8.89,6.2-19.02,9.06-29.52,10.68-6.62,1.02-13.33,1.42-19.98,2.1Z"/><path d="m168.08,142.23c-.02,10.26-2.04,18.75-7.5,26.12-9.07,12.26-23.68,13.42-34.68,2.87-14.34-13.75-16.49-41.51-4.32-57.17,5.29-6.81,12.11-10.58,21.01-9.25,6.83,1.02,12.03,4.87,16.18,10.17,6.53,8.34,9.22,17.98,9.32,27.26Z"/><path d="m116.86,139.49c.16,2.1.2,4.22.49,6.3,1.3,9.13,4.54,17.38,11.5,23.71,5.92,5.39,12.74,7.41,20.43,4.16,4.78-2.02,8.11-5.74,10.6-10.19,4.82-8.62,5.77-17.91,4.31-27.48-1.31-8.6-4.64-16.32-11.09-22.41-9.08-8.57-21.28-7.61-28.88,2.28-5.35,6.96-7.26,15-7.38,23.63Z" style="fill:#fec833;"/><path d="m175.55,112.97c-.21-3.59-.49-7.17-.55-10.76-.01-.74.83-1.49,1.27-2.23.62.55,1.62,1.01,1.77,1.67.39,1.76.53,3.6.57,5.42.24,9.54.08,19.11.72,28.62.53,7.86,1.64,15.73,3.18,23.45.62,3.12,3.01,5.9,4.7,8.78.42.71,1.18,1.26,1.87,1.77,4.3,3.19,7.12,2.54,8.42-2.61,1.96-7.8,3.94-15.69,4.76-23.66,1.18-11.43,1.7-22.96.33-34.46-.23-1.9-.45-3.83-.35-5.73.04-.69,1.01-1.34,1.56-2.01.56.61,1.51,1.15,1.62,1.83,1.81,11.71,2.02,23.42,1.16,35.27-.46,6.45.91,13.04,1.59,19.56.24,2.33.76,4.64,1.35,6.91.29,1.12.9,2.2,1.58,3.15.83,1.16,1.53,2.36.21,3.4-1.36,1.07-1.93-.22-2.74-1.2-3.1-3.7-2.66-8.4-3.82-12.65-.29-1.06-.44-2.15-.66-3.23-.28,1.08-.56,2.15-.83,3.23-.86,3.54-1.51,7.15-2.63,10.6-2.37,7.32-8.33,8.8-14.13,3.64-4.97-4.42-7.6-10.2-8.47-16.59-1.1-8.16-1.81-16.39-2.3-24.62-.35-5.83-.07-11.7-.07-17.55-.04,0-.08,0-.12-.01Z"/><path d="m221.01,5.85c.39,22.15.75,44.3,1.18,66.45.2,10.02.39,20.05.84,30.06.59,12.88,1.3,25.77,2.22,38.63.74,10.23,1.9,20.43,2.76,30.66.06.69-.83,1.47-1.28,2.2-.7-.59-1.9-1.11-2-1.79-.49-3.35-.73-6.74-.98-10.12-1.34-18.51-2.8-37.01-3.92-55.53-.57-9.52-.56-19.08-.71-28.63-.17-10.84-.11-21.69-.34-32.53-.24-10.93-.75-21.85-1.06-32.78-.1-3.45,0-6.9.2-10.34.04-.74.92-1.42,1.41-2.13.63.65,1.62,1.22,1.81,1.98.31,1.22.08,2.57.08,3.86-.08,0-.15,0-.23,0Z"/><path d="m233.66,113.09c.59,6.48,1.85,8.08,6.3,9.44,1.92.59,3.88,1.13,5.86,1.46,5.46.92,10.28,3.33,14.94,6.15,3.66,2.21,6.22,5.44,7.75,9.38,3.29,8.49,2.36,16.88-1.81,24.71-3.62,6.79-11.34,8.57-18.07,4.9-2.15-1.17-4.39-2.18-6.49-3.41-2.71-1.58-2.96-4.53-.53-6.23.52-.37,1.45-.15,2.2-.2,0,.69-.05,1.39.04,2.07.08.65.1,1.65.5,1.87,2.54,1.44,5.13,2.83,7.8,4.01,3.91,1.74,9.13-.02,11.56-4.24,4.14-7.17,5.42-20.02-1.16-27.08-4.32-4.63-9.99-6.98-16.04-8.48-2.56-.63-5.15-1.15-7.67-1.93-6.26-1.94-8.76-6.08-8.42-12.65.29-5.46,2.79-9.46,7.02-12.58,5.53-4.09,11.67-6.81,18.51-7.75,2.44-.34,4.69.27,5.97,2.52.38.66-.14,1.83-.25,2.76-.78-.33-1.56-.63-2.32-.99-.69-.33-1.38-1.09-2.02-1.03-2.08.2-4.19.5-6.19,1.11-4.96,1.51-9.46,3.87-13.38,7.35-3.29,2.92-4.32,6.54-4.09,8.86Z"/></g></g></svg>