<?xml version="1.0" encoding="UTF-8"?><svg id="b" xmlns="http://www.w3.org/2000/svg" viewBox="0 0 225.57 176.92" fill="currentColor"><g id="c"><g><path d="m49.84,36.56c7.08.3,12.99.81,17.39,5.57,1.08,1.17,1.97,2.62,2.56,4.1.26.64-.48,1.68-.76,2.54-.67-.5-1.6-.86-1.96-1.53-2.32-4.36-6.14-6.34-10.79-6.97-10.89-1.47-20.75,1.31-29.69,7.52-10,6.96-17.79,15.78-21.97,27.38-.86,2.38-1.34,5.08-1.21,7.6.32,6.09,3.06,9.08,9.53,10.22,6.12,1.07,12.34,1.69,18.52,2.36,14.37,1.54,28.66,3.64,41.38,11.05,12.78,7.45,21.98,17.98,24.93,32.91,1.89,9.61-1.25,23.16-14.12,29.53-13.1,6.48-26.9,10.05-41.49,6.93-11.25-2.41-21.33-7.74-30.18-15.2-.62-.52-1.31-1.1-1.61-1.8-.26-.6-.24-1.57.1-2.1.3-.47,1.24-.84,1.82-.75.51.08.94.84,1.36,1.33.33.39.52.94.91,1.24,11.39,8.77,23.71,15.5,38.57,15.11,10.06-.26,19.68-2.84,28.76-7.39,12.53-6.27,14.95-20.34,11.92-29.72-4.61-14.27-14.37-23.86-27.8-29.96-9.82-4.46-20.29-6.3-30.9-7.54-7.23-.85-14.51-1.44-21.69-2.63-10.92-1.82-15.28-8.79-12.7-19.59,1.76-7.37,5.75-13.59,10.51-19.3,8.06-9.67,17.84-16.85,30.31-19.76,3.06-.71,6.25-.88,8.3-1.15Z"/><path d="m166.45,107.03c0-3.79-.01-7.57,0-11.36,0-1.21-.28-2.86,1.56-2.79,1.69.07,1.76,1.37,1.75,2.94-.04,6.81.07,13.62.3,20.42.25,7.47.58,14.95,1.09,22.41.45,6.54.65,13.14,2.96,19.41,2.36,6.41,7.43,5.67,10.97,2.31,4.12-3.9,5.78-9.11,6.3-14.63,1.18-12.52,1.52-25.06.47-37.63-.43-5.14-.21-10.35-.09-15.52.02-.8,1.09-1.58,1.68-2.37.59.74,1.55,1.42,1.7,2.24,1.55,8.65,1.14,17.36.93,26.1-.14,5.77.33,11.61,1.08,17.34,1.03,7.88,2.57,15.7,3.95,23.53.2,1.16.67,2.3,1.15,3.39.57,1.28.85,2.52-.67,3.17-1.47.63-2.16-.53-2.43-1.7-1.37-5.88-2.66-11.78-3.98-17.67-.09-.4-.24-.79-.36-1.18-.06.38-.14.75-.18,1.13-.65,5.3-2.45,10.14-5.66,14.44-2.3,3.08-5.44,4.65-9.18,5.05-3.28.35-6.76-1.8-8.13-5.72-1.37-3.95-2.55-8.1-2.88-12.24-1.07-13.66-1.72-27.36-2.53-41.04.06,0,.12-.02.18-.02Z"/><path d="m161.09,136.92c-.25,9.57-2.06,18.22-7.89,25.53-8.27,10.36-21.17,11.24-30.94,2.22-7.73-7.14-11.63-16.25-13.02-26.45-1.5-11.04-.2-21.67,6.31-31.13,7.85-11.39,21.73-12.89,31.89-3.46,8.27,7.67,12,17.5,13.29,28.44.21,1.76.26,3.54.35,4.86Z"/><path d="m112.03,134.38c0,6.59,2.76,15.75,8.15,23.19,3.47,4.79,7.79,8.53,13.77,9.73,7.23,1.45,14-2.02,18.42-9.22,8.96-14.59,6.37-38.28-5.53-50.61-9.91-10.26-22.63-8.82-29.89,3.43-3.65,6.16-4.96,12.92-4.91,23.47Z" style="fill:#fec833;"/><path d="m219.61,112.42c0-7.2.18-14.4-.04-21.58-.39-13.28-1.01-26.54-1.55-39.82-.09-2.16-.29-4.31-.31-6.47-.12-13.72-.21-27.44-.29-41.16,0-.81-.03-1.75.36-2.38.34-.55,1.26-1.06,1.88-1.01.45.03,1.17,1.01,1.17,1.57,0,4.6-.29,9.2-.23,13.79.14,11.51.31,23.02.67,34.53.43,13.85,1.27,27.69,1.54,41.54.24,12.28-.22,24.56-.08,36.84.14,13.24.59,26.47,2.82,39.57.12.73-.69,1.61-1.06,2.42-.69-.63-1.89-1.19-1.98-1.9-.95-7.46-2.07-14.93-2.46-22.43-.59-11.16-.62-22.34-.89-33.51.15,0,.3,0,.46,0Z"/></g></g></svg>